<svg width="18" height="23" viewBox="0 0 18 23" fill="none" xmlns="http://www.w3.org/2000/svg">
<path d="M9 22.4525L2.63604 16.0886C-0.87868 12.5738 -0.87868 6.87537 2.63604 3.36065C6.15076 -0.154071 11.8492 -0.154071 15.364 3.36065C18.8787 6.87537 18.8787 12.5738 15.364 16.0886L9 22.4525ZM13.9497 14.6743C16.6834 11.9407 16.6834 7.50853 13.9497 4.77486C11.2161 2.04119 6.78392 2.04119 4.05025 4.77486C1.31658 7.50853 1.31658 11.9407 4.05025 14.6743L9 19.6241L13.9497 14.6743ZM9 11.7246C7.8954 11.7246 7 10.8292 7 9.72461C7 8.62004 7.8954 7.72461 9 7.72461C10.1046 7.72461 11 8.62004 11 9.72461C11 10.8292 10.1046 11.7246 9 11.7246Z" fill="#25B679"/>
</svg>
