<svg xmlns="http://www.w3.org/2000/svg" width="500" height="500" fill="none"><path fill="#DBDBDB" d="m444.87 50.51.21 80.51c.002 1.07-.206 2.131-.613 3.12-.407.99-1.005 1.89-1.76 2.649-.755.758-1.652 1.361-2.64 1.773-.988.412-2.047.625-3.117.628l-127.68.33c-1.07.003-2.131-.206-3.121-.613-.989-.407-1.889-1.005-2.648-1.76-.759-.755-1.361-1.652-1.773-2.64-.412-.987-.625-2.047-.628-3.117l-.21-80.51c-.003-2.0112.793-3.9413 2.212-5.3663 1.42-1.425 3.347-2.2284 5.358-2.2337L437.27 43c2.002-.0053 3.924.7813 5.348 2.1883s2.233 3.3201 2.252 5.3217Z"/><path fill="#A6A6A6" d="M424.29 119.73c.002 1.481-.435 2.929-1.256 4.162-.821 1.232-1.989 2.194-3.356 2.763-1.367.569-2.873.72-4.326.434-1.453-.287-2.788-.997-3.838-2.042-1.049-1.045-1.765-2.378-2.057-3.83-.292-1.452-.147-2.958.417-4.327.563-1.37 1.52-2.541 2.749-3.367 1.23-.826 2.676-1.269 4.157-1.273.984-.003 1.96.189 2.87.563.911.375 1.738.925 2.436 1.62.697.695 1.251 1.52 1.629 2.429.378.909.574 1.884.575 2.868Z"/><path fill="#25B679" d="M433.52 119.7c.006 1.484-.429 2.937-1.249 4.174-.82 1.237-1.988 2.203-3.358 2.775-1.369.573-2.878.726-4.334.441-1.457-.285-2.796-.996-3.848-2.043-1.052-1.046-1.77-2.382-2.063-3.837-.293-1.455-.148-2.964.417-4.336.565-1.373 1.525-2.546 2.758-3.373 1.233-.827 2.683-1.269 4.167-1.271 1.986-.003 3.891.782 5.299 2.183 1.408 1.4 2.203 3.301 2.211 5.287ZM335.838 57.0306l-18.63.0487c-2.319.0061-4.195 1.8914-4.189 4.211l.027 10.28c.006 2.3196 1.892 4.195 4.211 4.189l18.63-.0488c2.32-.0061 4.195-1.8914 4.189-4.211l-.027-10.2799c-.006-2.3196-1.891-4.1951-4.211-4.189Z"/><path fill="#fff" d="M428.26 67h-12.22c-1.34.003-2.628-.5184-3.589-1.4528-.96-.9344-1.517-2.2076-1.551-3.5472-.007-.6749.12-1.3444.373-1.9701.253-.6256.628-1.1951 1.102-1.6756.474-.4805 1.038-.8625 1.66-1.1241.622-.2616 1.29-.3976 1.965-.4002h12.23c.673-.0026 1.339.1276 1.962.3832.622.2556 1.188.6316 1.664 1.1064.477.4748.855 1.039 1.113 1.6603.258.6212.391 1.2874.391 1.9601-.016 1.344-.559 2.628-1.514 3.5746-.954.9467-2.242 1.4802-3.586 1.4854Z"/><path fill="#F8F8F8" d="m312.11 92.8-1.11.66c-.061.037-.134.0482-.204.0314-.069-.0169-.129-.0605-.166-.1214-.019-.0304-.032-.0645-.037-.1002-.006-.0356-.004-.072.006-.1067.009-.0348.026-.0673.048-.0954.023-.028.051-.0511.083-.0677l1.51-.92c.063-.0335.136-.0418.205-.0232.069.0186.128.0627.165.1232.025.0644.025.1357 0 .2v7.2c.008.0392.006.0795-.003.1181-.01.0386-.028.0746-.054.1053-.025.0308-.057.0555-.093.0725-.036.017-.075.0259-.115.0259-.04 0-.079-.0089-.115-.0259-.036-.017-.068-.0417-.093-.0725-.026-.0307-.044-.0667-.054-.1053-.01-.0386-.011-.0789-.003-.1181l.03-6.78ZM314.59 99.36l3.65-3.31c.21-.1915.378-.4246.494-.6845.115-.26.175-.5411.176-.8255 0-.5305-.211-1.0392-.586-1.4142-.375-.3751-.884-.5858-1.414-.5858-.503-.0014-.99.1798-1.37.51l-.38.35c-.025.0283-.055.0512-.089.0671-.034.0159-.071.0246-.109.0254-.037.0008-.075-.0063-.109-.0208-.035-.0145-.066-.0361-.092-.0633-.026-.0273-.046-.0597-.059-.0951-.012-.0355-.018-.0731-.015-.1106.003-.0375.014-.074.031-.1072.018-.0332.042-.0623.072-.0855l.38-.36c.479-.4263 1.099-.6613 1.74-.66.355-.0061.707.065 1.031.2083.325.1433.614.3554.849.6217.436.4628.679 1.0743.68 1.71 0 .3592-.075.7145-.219 1.0433-.145.3288-.356.624-.621.8667l-3.13 2.84h3.71c.064.0122.122.0464.163.0966.042.0502.064.1133.064.1784s-.022.1282-.064.1784c-.041.0502-.099.0843-.163.0966h-4.41c-.037.004-.075-.0012-.11-.0152-.035-.0139-.066-.0362-.09-.0648-.05-.0521-.079-.121-.08-.1931-.002-.0721.023-.1423.07-.1969ZM325.92 92.47l-2 2.08c.51.1053.978.3553 1.35.72.246.2473.44.5406.572.8632.132.3227.2.6682.198 1.0168.004.349-.062.6953-.194 1.0183-.132.323-.328.616-.576.8617-.246.2488-.539.4467-.861.5823-.323.1355-.669.2061-1.019.2077-.35.0025-.696-.0652-1.019-.1992-.323-.134-.616-.3315-.861-.5808-.034-.0235-.061-.054-.082-.0894-.02-.0354-.033-.0749-.036-.1156-.004-.0407.002-.0817.016-.1201.014-.0384.036-.0733.065-.1022.029-.0289.063-.0511.102-.0651.038-.014.079-.0194.12-.0158.041.0035.08.0159.116.0363.035.0205.065.0484.089.0819.399.3957.938.6177 1.5.6177s1.101-.222 1.5-.6177c.199-.1956.358-.4289.466-.6865.108-.2576.164-.5341.164-.8135s-.056-.556-.164-.8136c-.108-.2575-.267-.4909-.466-.6864-.194-.1953-.424-.3499-.678-.4547-.255-.1047-.527-.1576-.802-.1553-.043-.0004-.085-.0105-.123-.0296-.038-.019-.071-.0466-.097-.0804-.052-.0556-.081-.1289-.081-.205 0-.0762.029-.1495.081-.205l1.94-2h-3c-.037.0014-.074-.0049-.109-.0185-.034-.0136-.066-.0341-.092-.0604-.026-.0263-.047-.0577-.061-.0923-.013-.0346-.02-.0717-.018-.1088 0-.0743.029-.1455.082-.198.052-.0525.124-.082.198-.082h3.66c.048-.0004.096.0118.138.0353.042.0235.078.0576.103.0989.025.0413.039.0884.041.1367.001.0483-.01.0962-.032.1391-.037.0407-.081.0745-.13.1ZM332.52 98.1801h-4.28c-.052.0059-.105-.0047-.151-.0304-.045-.0256-.082-.065-.104-.1126-.022-.0475-.029-.1008-.019-.1523.01-.0516.036-.0987.074-.1347l4.52-5.66c.023-.0275.053-.0495.085-.0646.033-.0151.069-.0229.105-.0229.036 0 .072.0078.105.0229.032.0151.061.0371.085.0646.042.0338.073.0789.09.13v5.37h.52c.073-.0001.142.0281.194.0784.053.0504.083.1191.086.1916 0 .0363-.007.0722-.022.1057-.014.0334-.034.0636-.061.0888-.026.0252-.057.0449-.091.0579-.034.0129-.07.0189-.106.0176h-.52v1.35c-.012.0639-.046.1216-.097.1631-.05.0415-.113.0642-.178.0642-.065 0-.128-.0227-.178-.0642-.051-.0415-.085-.0992-.097-.1631l.04-1.3Zm0-.53v-4.6l-3.7 4.61 3.7-.01ZM342.34 99c-.026-.0252-.047-.0555-.062-.089-.014-.0335-.021-.0695-.021-.106 0-.0364.007-.0725.021-.106.015-.0335.036-.0638.062-.089.054-.0543.128-.0849.205-.0849.077 0 .151.0306.205.0849.194.1949.425.3491.679.4539.254.1047.526.1578.801.1561.552-.0074 1.079-.2298 1.47-.62.196-.1933.352-.4237.458-.6778.107-.2541.162-.5267.162-.8022-.003-.5569-.221-1.0911-.61-1.49-.396-.3853-.927-.6005-1.48-.6-.278-.0058-.554.0463-.81.1531-.257.1067-.488.2657-.68.4669-.025.0263-.056.0473-.089.0616-.034.0143-.07.0217-.106.0217-.036 0-.073-.0074-.106-.0217-.034-.0143-.064-.0353-.089-.0616-.034-.0196-.059-.0519-.07-.09a.22725.22725 0 0 1 0-.09l.37-3.16c-.002-.0402.008-.0801.027-.1154.019-.0352.048-.0645.083-.0846.023-.0235.052-.0418.083-.0539.031-.012.064-.0175.097-.0161h3.65c.037-.0014.074.0049.109.0185.034.0135.066.0341.092.0604.026.0263.047.0577.061.0923.013.0346.019.0717.018.1088.001.0372-.005.0742-.018.1088-.014.0346-.035.066-.061.0923-.026.0263-.058.0469-.092.0605-.035.0135-.072.0198-.109.0184h-3.41l-.28 2.33c.403-.2374.862-.3618 1.33-.36.349-.0074.695.0561 1.018.1868.323.1306.617.3257.862.5732.248.2458.445.5387.579.8615.134.3228.202.669.201 1.0185.002.3502-.064.6975-.197 1.0218-.132.3243-.327.6194-.573.8682-.507.4866-1.178.7651-1.88.78-.359-.0122-.713-.0964-1.039-.2475-.327-.1512-.619-.3662-.861-.6325ZM349.8 93.62c.262-.5032.655-.9266 1.137-1.2258.482-.2991 1.036-.4629 1.603-.4742.07-.0028.138.0217.19.0684.053.0466.085.1118.09.1816 0 .0736-.028.1445-.078.1983-.05.0539-.119.0866-.192.0917-.473.013-.934.1526-1.335.404-.401.2515-.727.6058-.945 1.026-.272.4888-.462 1.0193-.56 1.57.24-.2792.538-.5032.873-.6568.335-.1536.699-.2331 1.067-.2332.508-.0016 1.006.1465 1.431.4257.424.2792.758.6773.958 1.1445.2.4673.258.9831.167 1.4833-.091.5001-.327.9624-.679 1.3293-.352.3669-.804.6221-1.3.7338-.496.1118-1.013.0751-1.489-.1053-.475-.1805-.886-.4968-1.183-.9096-.297-.4128-.465-.9037-.485-1.4117-.015-.173-.015-.347 0-.52-.022-1.0847.229-2.1575.73-3.12Zm-.19 3.59c-.007.0464-.007.0936 0 .14.006.0263.006.0537 0 .08.035.5176.27 1.0013.655 1.349.384.3478.889.5324 1.408.5149.518-.0175 1.01-.2358 1.37-.6088.361-.3729.562-.8713.562-1.3901 0-.5187-.201-1.0172-.562-1.3901-.36-.373-.852-.5912-1.37-.6087-.519-.0176-1.024.167-1.408.5148-.385.3478-.62.8315-.655 1.349v.05ZM357.11 99.3501l2.89-6.88h-3.78c-.071-.0025-.138-.0318-.188-.0819-.05-.0501-.08-.1173-.082-.1881 0-.0699.027-.1371.075-.1875.049-.0503.115-.0799.185-.0825h4.15c.056-.0149.114-.0149.17 0 .066.0368.117.0976.14.17.025.033.039.0734.039.115 0 .0415-.014.0819-.039.115l-3 7.22c-.019.0485-.052.0904-.095.1205-.042.0302-.093.0474-.145.0495-.036.0103-.074.0103-.11 0-.039-.0092-.076-.0263-.107-.0502-.032-.0239-.059-.0542-.079-.089-.02-.0347-.032-.0731-.036-.1129-.004-.0397 0-.0798.012-.1179ZM364.84 91.87c.43 0 .844.1704 1.149.4739.305.3035.478.7156.481 1.1461.003.2567-.055.5105-.17.7401-.115.2296-.283.4285-.49.5799.543.2245.992.6305 1.269 1.1487.278.5183.367 1.1167.252 1.6933-.114.5766-.425 1.0956-.879 1.4686-.455.373-1.024.5769-1.612.5769-.588 0-1.158-.2039-1.612-.5769-.454-.373-.765-.892-.879-1.4686-.115-.5766-.026-1.175.252-1.6933.277-.5182.726-.9242 1.269-1.1487-.203-.1547-.368-.3545-.48-.5835-.113-.2291-.171-.4812-.17-.7365-.001-.2131.04-.4243.121-.6215.08-.1971.2-.3763.35-.5269.151-.1507.33-.27.527-.351.198-.0809.409-.1219.622-.1206Zm0 7.3c.53 0 1.039-.2107 1.414-.5858.375-.375.586-.8837.586-1.4142 0-.5304-.211-1.0391-.586-1.4142s-.884-.5858-1.414-.5858c-.531 0-1.039.2107-1.414.5858s-.586.8838-.586 1.4142c0 .5305.211 1.0392.586 1.4142.375.3751.883.5858 1.414.5858Zm0-4.57c.293-.0026.572-.1207.778-.3286.206-.2079.322-.4887.322-.7814-.001-.1431-.031-.2846-.087-.4163-.056-.1318-.137-.2512-.239-.3515-.103-.1003-.223-.1795-.356-.233-.133-.0536-.275-.0805-.418-.0792-.144-.0013-.286.026-.419.0803s-.253.1345-.355.236c-.101.1015-.182.2222-.236.355-.054.1329-.081.2752-.08.4187 0 .29.114.5683.319.7743.204.206.481.3231.771.3257ZM378.77 91.84c.634-.0068 1.249.2213 1.725.6404.476.419.781.9995.855 1.6296-.002.02-.002.04 0 .06v.67c.016 1.0884-.239 2.1638-.74 3.13-.269.4985-.663.9183-1.143 1.2182-.481.2998-1.031.4693-1.597.4918-.036.0027-.073-.0019-.107-.0137-.035-.0117-.066-.0302-.094-.0545-.027-.0243-.048-.0538-.064-.0868-.015-.0329-.024-.0687-.025-.105 0-.0736.027-.1445.078-.1983.05-.0539.118-.0866.192-.0917.473-.013.934-.1525 1.335-.404.401-.2515.727-.6058.945-1.026.275-.4875.464-1.0185.56-1.57-.248.2839-.557.5092-.902.6596-.346.1504-.721.2223-1.098.2104-.684 0-1.341-.2718-1.824-.7557-.484-.4838-.756-1.14-.756-1.8243 0-.6843.272-1.3405.756-1.8243.483-.4839 1.14-.7557 1.824-.7557h.08Zm2.06 2.57c0-.5424-.216-1.0625-.599-1.446-.384-.3836-.904-.599-1.446-.599-.542 0-1.063.2154-1.446.599-.384.3835-.599.9036-.599 1.446s.215 1.0625.599 1.446c.383.3835.904.599 1.446.599.542 0 1.062-.2155 1.446-.599.383-.3835.599-.9036.599-1.446ZM383.37 95.74c-.028-.9662.229-1.9192.74-2.74.192-.3482.473-.6386.815-.8408.342-.2023.733-.309 1.13-.309.397 0 .788.1067 1.13.309.342.2022.623.4926.815.8408.513.8211.78 1.7719.77 2.74.015.9642-.249 1.9123-.76 2.73-.187.3585-.468.6589-.814.8685-.345.2096-.742.3205-1.146.3205-.404 0-.801-.1109-1.146-.3205-.346-.2096-.627-.51-.814-.8685-.497-.8219-.747-1.7697-.72-2.73Zm.55 0c-.019.8567.21 1.7007.66 2.43.157.2669.377.4917.64.6554.262.1637.561.2613.87.2846.312-.0284.612-.1349.873-.3096.26-.1747.472-.4122.617-.6904.442-.7336.675-1.5737.675-2.43 0-.8563-.233-1.6964-.675-2.43-.137-.2807-.351-.5173-.616-.6827-.265-.1655-.571-.2532-.884-.2532-.313 0-.619.0877-.884.2532-.265.1654-.479.402-.616.6827-.463.7458-.693 1.6128-.66 2.49ZM392.41 92.6l-1.1.65c-.046.0101-.094.0101-.14 0-.058-.0023-.114-.0232-.159-.0596-.045-.0363-.077-.0862-.091-.1422-.015-.056-.011-.1152.01-.1689.022-.0537.06-.099.11-.1293l1.51-.92c.063-.0335.136-.0418.205-.0232.068.0186.127.0627.165.1232.02.0652.02.1349 0 .2v7.2c.001.0359-.005.0716-.018.105-.013.0334-.033.0637-.058.0891-.025.0254-.056.0452-.089.0583-.034.013-.069.0191-.105.0176-.071-.0024-.138-.0317-.188-.0818-.05-.0501-.08-.1173-.082-.1882l.03-6.73ZM394.89 99.1501l3.66-3.31c.209-.1893.377-.4208.49-.6793.114-.2586.172-.5383.17-.8207-.002-.5005-.191-.9822-.53-1.35-.178-.1977-.392-.3581-.632-.4719-.24-.1138-.501-.1786-.766-.1907s-.53.0288-.78.1202c-.249.0914-.478.2316-.672.4124l-.38.34c-.024.0274-.053.0494-.086.0646-.032.0151-.068.0229-.104.0229-.036 0-.072-.0078-.105-.0229-.033-.0152-.062-.0372-.085-.0646-.026-.0244-.047-.0538-.061-.0865-.014-.0326-.022-.0679-.022-.1035 0-.0357.008-.0709.022-.1036.014-.0327.035-.0621.061-.0864l.38-.36c.478-.4209 1.093-.6552 1.73-.66.336-.0013.668.0636.979.1912.31.1276.593.3152.83.5521.238.2369.427.5185.556.8285.129.31.195.6424.195.9782.001.3569-.072.7103-.215 1.0374-.143.3271-.352.6209-.615.8626l-3.13 2.84h3.71c.071.005.137.0368.185.0887.048.052.075.1203.075.1913.001.0349-.005.0698-.017.1025-.013.0327-.031.0626-.056.0878-.024.0252-.053.0453-.085.059-.033.0137-.067.0207-.102.0207h-4.42c-.073.0027-.145-.0223-.2-.07-.05-.0597-.076-.1361-.072-.2139.003-.0779.036-.1515.092-.2061ZM412.94 92.24l-2 2.09c.591.1253 1.119.4524 1.495.925.376.4726.576 1.0613.565 1.665.005.3492-.06.6958-.192 1.019-.133.3231-.329.6161-.578.861-.246.2489-.539.4468-.861.5823-.323.1356-.669.2062-1.019.2077-.35.0049-.697-.0618-1.021-.1959-.323-.1342-.615-.3329-.859-.5841-.038-.0539-.055-.1194-.05-.185.006-.0656.035-.1271.081-.1737.047-.0466.108-.0752.174-.0809.065-.0058.131.0118.185.0496.397.3835.928.5985 1.48.6.276.0013.55-.0518.806-.1565.255-.1047.488-.2588.684-.4535.287-.296.482-.6699.559-1.0753.077-.4054.034-.8246-.125-1.2056-.158-.381-.425-.7071-.767-.9381-.342-.2309-.744-.3564-1.157-.361-.043-.0004-.085-.0105-.123-.0295-.038-.0191-.071-.0466-.097-.0805-.027-.0261-.048-.0572-.062-.0915-.015-.0344-.022-.0712-.022-.1085 0-.0372.007-.0741.022-.1085.014-.0343.035-.0654.062-.0915l1.94-2h-3c-.074 0-.146-.0295-.198-.082-.053-.0525-.082-.1237-.082-.198-.002-.0371.005-.0742.018-.1088.014-.0346.035-.066.061-.0923.026-.0263.057-.0469.092-.0604.035-.0136.072-.0199.109-.0185h3.66c.068-.0029.135.0202.187.0648.052.0445.085.1072.093.1752.01.0394.01.0807 0 .12-.004.0463-.025.0892-.06.12ZM419.54 98h-4.28c-.031.0026-.062-.0014-.092-.0118-.029-.0103-.056-.0267-.078-.0482-.026-.0243-.047-.0537-.061-.0864-.014-.0327-.022-.0679-.022-.1036 0-.0356.008-.0709.022-.1035.014-.0327.035-.0621.061-.0865l4.52-5.65c.024-.026.054-.0468.086-.061.033-.0142.068-.0215.104-.0215.035 0 .071.0073.103.0215.033.0142.063.035.087.061.042.0338.073.079.09.13-.002.0166-.002.0334 0 .05v5.38h.52c.039-.0076.079-.0065.118.0033.038.0098.074.028.105.0533.031.0254.056.0572.073.0932.017.036.026.0754.026.1152 0 .0399-.009.0792-.026.1153-.017.036-.042.0678-.073.0931-.031.0254-.067.0436-.105.0534-.039.0097-.079.0109-.118.0032h-.52v1.3c0 .0363-.007.0723-.022.1057-.014.0334-.035.0637-.061.0889-.026.0252-.057.0449-.091.0578-.034.013-.07.019-.106.0176-.071-.0025-.138-.0317-.188-.0818-.05-.0501-.08-.1173-.082-.1882l.01-1.3Zm0-.54v-4.59l-3.69 4.6 3.69-.01ZM422.65 98.79c-.026-.0252-.047-.0555-.062-.089-.014-.0335-.021-.0696-.021-.106s.007-.0725.021-.106c.015-.0335.036-.0638.062-.089.026-.0266.057-.0477.091-.0622.035-.0144.072-.0218.109-.0218.037 0 .074.0074.108.0218.035.0145.066.0356.092.0622.396.3853.927.6006 1.48.6.555-.0026 1.087-.2251 1.478-.6186.392-.3935.612-.9262.612-1.4814.003-.2766-.049-.5511-.154-.8071-.104-.2559-.26-.4882-.456-.6829-.395-.388-.927-.6038-1.48-.6-.277-.0023-.552.0515-.808.158-.256.1066-.488.2637-.682.462-.025.0263-.056.0473-.089.0616-.034.0143-.07.0217-.106.0217-.037 0-.073-.0074-.106-.0217-.034-.0143-.064-.0353-.089-.0616-.032-.0226-.056-.0538-.07-.09-.005-.0298-.005-.0602 0-.09v-.06l.37-3.16c.013-.0719.05-.1373.104-.1862.054-.0489.123-.0783.196-.0838h3.65c.074 0 .145.0295.198.082.052.0525.082.1237.082.198.001.0372-.005.0742-.019.1088-.013.0346-.034.066-.06.0923-.026.0263-.058.0469-.092.0605-.035.0135-.072.0198-.109.0184h-3.42l-.27 2.33c.403-.2386.862-.3662 1.331-.3696.468-.0034.929.1174 1.336.3502.406.2327.744.5691.978.9747.234.4057.357.8663.355 1.3347.003.3489-.063.6948-.195 1.0177-.133.3228-.328.616-.575.8623-.5.4959-1.176.7741-1.88.7741s-1.38-.2782-1.88-.7741l-.03-.03ZM430.1 93.4201c.261-.5052.653-.9306 1.135-1.2316.482-.3009 1.037-.4662 1.605-.4784.07-.0028.138.0217.19.0683.053.0467.085.1118.09.1817 0 .0746-.027.1467-.077.2021-.05.0555-.119.0904-.193.0979-.472.011-.933.1485-1.334.3983s-.728.6026-.946 1.0217c-.27.4889-.456 1.0196-.55 1.57.398-.4483.94-.7438 1.533-.8358.593-.0919 1.199.0255 1.714.332.516.3066.908.7831 1.11 1.3477.203.5646.202 1.1821-.002 1.7461-.204.5641-.597 1.0396-1.114 1.3447-.516.3052-1.122.421-1.715.3275-.592-.0935-1.133-.3905-1.531-.8398-.397-.4494-.625-1.0231-.645-1.6224-.01-.1732-.01-.3469 0-.52-.018-1.0812.232-2.15.73-3.11Zm-.18 3.58c-.006.0498-.006.1001 0 .15.005.0264.005.0535 0 .08.035.5467.281 1.0585.687 1.4268.406.3684.939.5646 1.486.5471.548-.0176 1.067-.2474 1.448-.641s.595-.92.595-1.4679c0-.548-.214-1.0744-.595-1.468-.381-.3936-.9-.6234-1.448-.641-.547-.0175-1.08.1787-1.486.5471-.406.3684-.652.8801-.687 1.4269v.04Z"/><path fill="#A6A6A6" d="m381.525 113.101-68.37.179.009 3.36 68.37-.179-.009-3.36ZM361.575 120.623l-48.4.127.009 3.36 48.399-.127-.008-3.36ZM406.188 56.8464l-34.1.0893.008 3.36 34.1-.0893-.008-3.36Z"/><path fill="#EBEBEB" d="M467.65 214.06h-73.88v73.88h73.88v-73.88Z"/><path fill="#fff" d="M431.94 225.92c.33-.003.658.06.964.186.305.125.583.31.817.543.233.234.418.512.543.817.126.306.189.634.186.964v1.28c3.226.366 6.326 1.468 9.06 3.22.524.256.966.655 1.276 1.15.309.494.473 1.066.474 1.65 0 .427-.085.849-.25 1.242-.165.394-.407.75-.711 1.049-.305.299-.666.534-1.062.692-.397.158-.82.235-1.247.227-.62-.009-1.226-.189-1.75-.52-1.854-1.164-3.878-2.031-6-2.57v11.21c8.88 2.22 12.68 5.78 12.68 12 0 6.43-5 10.69-12.45 11.39V274c.003.33-.06.658-.186.964-.125.305-.31.583-.543.817-.234.233-.512.418-.817.543-.306.126-.634.189-.964.186-.334.004-.665-.058-.974-.182-.31-.124-.592-.308-.831-.541-.239-.233-.429-.511-.56-.817-.132-.307-.201-.636-.205-.97v-3.62c-4.326-.463-8.459-2.033-12-4.56-.486-.287-.887-.697-1.165-1.189-.277-.491-.42-1.047-.415-1.611.003-.595.171-1.178.485-1.684.314-.506.762-.915 1.295-1.181.532-.266 1.128-.38 1.722-.328.593.052 1.16.268 1.638.623 2.542 1.955 5.503 3.294 8.65 3.91v-11.52c-8.53-2.22-12.5-5.43-12.5-12 0-6.25 5-10.57 12.26-11.15v-1.23c0-.337.067-.671.197-.981.13-.311.321-.593.561-.829.24-.237.525-.423.838-.548.312-.126.647-.187.984-.182Zm-2.33 19.91V235.5c-3.74.35-5.61 2.33-5.61 4.9 0 2.57 1.11 3.97 5.61 5.43Zm4.61 8.12v10.63c3.74-.4 5.78-2.27 5.78-5.08 0-2.57-1.28-4.14-5.78-5.5v-.05Z"/><path fill="#EBEBEB" d="M125.7 151.46H51.8199v73.88H125.7v-73.88Z"/><path fill="#fff" d="M105.15 203.09H70.7l-8.45-30.6 48.45-.05 1.75-7.06h5.49v2H114l-8.85 35.71Zm-32.93-2h31.37l6.61-26.65H64.87l7.35 26.65Z"/><path fill="#fff" d="m75.54 209.15-1.84-.78 3.08-7.32h23.45l2.54 7.39-1.89.65-2.07-6.04h-20.7l-2.57 6.1ZM109.74 179.44h-44v2h44v-2ZM107.365 186.86l-39.8001.173.0088 2 39.7993-.173-.008-2ZM105.74 194.62H69.6699v2H105.74v-2Z"/><path fill="#fff" d="M89.1799 173.62h-2v28.47h2v-28.47ZM81.3961 173.544l-1.9936.16 2.2813 28.479 1.9936-.16-2.2813-28.479ZM72.7939 173.438l-1.967.362 5.236 28.473 1.967-.362-5.236-28.473ZM94.8266 173.556l-2.2913 28.478 1.9935.161 2.2913-28.478-1.9935-.161ZM103.433 173.446l-5.2307 28.473 1.9667.362 5.231-28.474-1.967-.361ZM74.6199 213.07c-.8524 0-1.6857-.253-2.3945-.726-.7087-.474-1.2612-1.147-1.5874-1.935-.3262-.787-.4115-1.654-.2452-2.49.1663-.836.5767-1.604 1.1795-2.207.6028-.602 1.3707-1.013 2.2068-1.179.8361-.166 1.7027-.081 2.4902.245.7876.326 1.4607.879 1.9343 1.588.4736.708.7263 1.542.7263 2.394-.0026 1.142-.4575 2.237-1.2652 3.045-.8078.807-1.9025 1.262-3.0448 1.265Zm0-6.62c-.4568 0-.9035.136-1.2833.389-.3799.254-.676.615-.8508 1.037-.1749.422-.2206.887-.1315 1.335.0892.448.3092.859.6322 1.182.3231.324.7347.544 1.1828.633.4481.089.9125.043 1.3346-.132.4221-.175.7829-.471 1.0367-.851.2539-.379.3893-.826.3893-1.283-.0026-.612-.2468-1.198-.6794-1.63-.4327-.433-1.0187-.677-1.6306-.68ZM101.73 213.07c-.853 0-1.686-.253-2.3946-.726-.7088-.474-1.2612-1.147-1.5874-1.935-.3262-.787-.4116-1.654-.2453-2.49.1663-.836.5768-1.604 1.1796-2.207.6028-.602 1.3707-1.013 2.2067-1.179.836-.166 1.703-.081 2.49.245.788.326 1.461.879 1.935 1.588.473.708.726 1.542.726 2.394-.003 1.142-.458 2.237-1.265 3.045-.808.807-1.903 1.262-3.045 1.265Zm0-6.62c-.457 0-.904.136-1.283.389-.38.254-.6764.615-.8512 1.037-.1749.422-.2206.887-.1315 1.335.0891.448.3091.859.6327 1.182.323.324.734.544 1.182.633.448.089.913.043 1.335-.132.422-.175.783-.471 1.037-.851.253-.379.389-.826.389-1.283-.003-.612-.247-1.198-.68-1.63-.432-.433-1.018-.677-1.63-.68Z"/><path fill="#EBEBEB" d="M274.95 462.42c101.311 0 183.44-10.875 183.44-24.29s-82.129-24.29-183.44-24.29c-101.311 0-183.44 10.875-183.44 24.29s82.129 24.29 183.44 24.29Z"/><path fill="#EBEBEB" d="M86.87 435.6c29.365 0 53.17-4.558 53.17-10.18s-23.805-10.18-53.17-10.18c-29.365 0-53.17 4.558-53.17 10.18s23.805 10.18 53.17 10.18Z"/><path fill="#263238" d="m38.97 395.48 52.75-.24 52.76-.09 105.52-.17 105.52.17 52.76.09 52.76.24-52.76.25-52.76.08-105.52.17-105.52-.17-52.76-.09-52.75-.24Z"/><path fill="#263238" d="M292.45 64.26H132.07c-2.151.0196-4.277.4627-6.257 1.3041-1.98.8413-3.775 2.0644-5.282 3.5994-1.507 1.5349-2.697 3.3517-3.502 5.3466-.805 1.9949-1.209 4.1288-1.189 6.2799V411c-.037 4.344 1.651 8.524 4.694 11.624 3.044 3.099 7.193 4.864 11.536 4.906h160.38c4.346-.04 8.499-1.803 11.546-4.902 3.047-3.1 4.739-7.282 4.704-11.628V80.79c.019-2.1524-.387-4.2873-1.194-6.2829-.806-1.9956-1.998-3.8128-3.507-5.3478-1.509-1.5349-3.306-2.7576-5.287-3.5983-1.982-.8406-4.11-1.2827-6.262-1.301Zm6.1 336.5c0 8.69-6.5 15.72-14.53 15.72H140.53c-8.05 0-14.56-7-14.56-15.72V93.3c0-17.7 6.51-18.56 14.56-18.56h28.74c1.67 0 3 1.9 3 4.25v1c0 5.52 3 5.53 6.73 5.53h66.5c3.74 0 6.73 0 6.73-5.53V79c0-2.35 1.34-4.25 3-4.25H284c8 0 14.53 2.35 14.53 18.56l.02 307.45Z"/><path fill="#fff" d="M298.55 96.36v304.4c0 8.69-6.5 15.72-14.53 15.72H140.53c-8.05 0-14.56-7-14.56-15.72V96.36c0-17.7 6.51-21.62 14.56-21.62h28.74c1.67 0 3 1.9 3 4.25v1c0 5.52 3 5.53 6.73 5.53h66.5c3.74 0 6.73 0 6.73-5.53V79c0-2.35 1.34-4.25 3-4.25H284c8.05-.01 14.55 5.4 14.55 21.61Z"/><path fill="#fff" d="M221.33 78.65H203.2c-.147 0-.293-.0289-.429-.0852-.135-.0563-.259-.1388-.363-.2428-.104-.104-.186-.2275-.243-.3634-.056-.1359-.085-.2815-.085-.4286s.029-.2927.085-.4286c.057-.1359.139-.2593.243-.3633.104-.104.228-.1865.363-.2428.136-.0563.282-.0853.429-.0853h18.13c.297 0 .582.118.792.3281.21.21.328.4949.328.7919 0 .2971-.118.582-.328.792-.21.21-.495.328-.792.328Z"/><path fill="#C7C7C7" d="M221.5 245.58h-20.94v2.72h20.94v-2.72Z"/><path fill="#25B679" d="M180.81 116.94h-43.95v43.95h43.95v-43.95Z"/><path fill="#fff" d="M180.81 116.94h-43.95v43.95h43.95v-43.95Z" opacity=".5"/><path fill="#263238" d="m163.59 144.64-5.78-1.93s-3 2.27-5-1.59c-.615.184-1.26.241-1.897.167-.638-.074-1.253-.276-1.81-.595-.556-.319-1.042-.748-1.428-1.26-.386-.513-.663-1.099-.815-1.722 0 0-5.53-1.75-3.94-4.87 1.59-3.12 6 .16 6 .16 1.305-.052 2.591.324 3.663 1.069 1.072.745 1.871 1.82 2.277 3.061 0 0 4.21 0 4.22 3.86l4.51 3.65Z"/><path fill="#fff" d="M145.47 134c1.553.813 3.093 1.64 4.62 2.48 1.54.85 3.06 1.71 4.58 2.59 1.52.88 3 1.76 4.51 2.68 1.51.92 3 1.85 4.41 2.85l-1.12-.68-1.13-.67-2.26-1.25-4.55-2.62-4.53-2.68-4.53-2.7Z"/><path fill="#263238" d="m163.88 144.44.06-6.1s3.1-2.06.11-5.23c.374-.522.639-1.114.777-1.741s.147-1.276.026-1.906c-.121-.631-.369-1.23-.728-1.762-.36-.532-.824-.984-1.365-1.331 0 0 .15-5.79-3.32-5.31-3.47.48-1.79 5.72-1.79 5.72-.48 1.225-.544 2.573-.183 3.838.361 1.265 1.128 2.376 2.183 3.162 0 0-1.38 4 2.28 5.24l1.95 5.42Z"/><path fill="#fff" d="M159.75 123.85c.36 1.72.71 3.43 1.05 5.15l1 5.15 1 5.15.52 2.57.27 1.29.28 1.28c-.49-1.68-.89-3.39-1.27-5.1-.38-1.71-.73-3.42-1.06-5.14-.33-1.72-.66-3.44-1-5.17-.34-1.73-.54-3.45-.79-5.18Z"/><path fill="#455A64" d="m164.22 145.38-5.66-5.94s-4.77 1.17-5.18-4.55c0 0-6.16-.77-5.39-7.26 0 0-5.76-5-2.2-8 3.56-3 7.21 3.37 7.21 3.37 1.607.618 2.966 1.746 3.869 3.211.903 1.465 1.301 3.186 1.131 4.899 0 0 5 2.23 3 6.89l3.22 7.38Z"/><path fill="#fff" d="M149.44 122.84c1.42 1.74 2.78 3.54 4.09 5.36l1 1.37 1 1.39c.32.46.63.93.94 1.39.31.46.63.94.94 1.41.62.94 1.22 1.89 1.82 2.84l.88 1.44.45.71.42.73c1.16 1.93 2.23 3.91 3.26 5.91l-.43-.72-.43-.73-.43-.73-.44-.71-.87-1.44-.89-1.44c-1.19-1.9-2.4-3.8-3.64-5.67-.6-.94-1.24-1.87-1.86-2.8l-.94-1.4-.95-1.39-1.92-2.77c-.69-.92-1.35-1.83-2-2.75Z"/><path fill="#fff" d="M173.38 145.25c.1.14.19.27.27.4 2.75 4.36-.85 7.85-1 9.41-.15 1.56 1.13 2.65.41 3.16-.72.51-1.27-1-2.85-1.42-1.23-.3-4.36 1.11-7.21-.42-.242-.123-.473-.267-.69-.43-.495-.362-.939-.789-1.32-1.27-.104-.124-.201-.254-.29-.39l-.15-.21c-1.066-1.448-1.634-3.202-1.62-5 .019-.336.059-.67.12-1 .438-1.977 1.62-3.71 3.3-4.84 2.72-1.94 6.25-2.38 9.23.09.187.16.377.33.57.51.384.389.742.803 1.07 1.24l.16.17Z"/><path fill="#DBDBDB" d="m166.3 153.12.43.6-3.73 2.66c-.242-.123-.473-.267-.69-.43l3.99-2.83ZM163.13 152.24l.44.61-2.57 1.83c-.104-.124-.201-.254-.29-.39l-.15-.21 2.57-1.84ZM173.38 145.25c.1.14.19.27.27.4l-2.56 1.83-.44-.6 2.58-1.84.15.21ZM172.16 143.8l-1.84 1.32-.44-.61 1.71-1.22c.193.16.383.33.57.51ZM161.1 146.58l.43.61-2.59 1.81c.019-.336.059-.67.12-1l2.04-1.42Z"/><path fill="#A6A6A6" d="M150.8 164.5c.051 0 .101.02.138.055.037.035.06.084.062.135v.31c.519.042 1.013.237 1.42.56.032.021.059.049.078.082.019.033.03.07.032.108-.003.039-.017.077-.04.108-.023.032-.055.056-.091.071-.037.015-.077.019-.115.012-.039-.007-.075-.025-.104-.051-.342-.285-.758-.465-1.2-.52v2.24c1.22.25 1.73.71 1.73 1.49-.011.211-.065.417-.158.607-.092.189-.223.358-.382.497-.16.138-.346.242-.547.307-.201.065-.413.088-.623.069v.63c-.002.051-.025.1-.062.135s-.087.055-.138.055c-.049-.002-.096-.023-.132-.058-.035-.035-.055-.082-.058-.132v-.63c-.669-.058-1.301-.331-1.8-.78-.024-.021-.044-.047-.058-.076-.014-.03-.021-.062-.022-.094.003-.052.024-.102.061-.139.037-.037.087-.059.139-.061.026-.002.053.003.077.013.025.011.046.027.063.047.424.41.973.667 1.56.73V168c-1.2-.27-1.7-.71-1.7-1.51.015-.205.071-.405.164-.589.092-.183.22-.347.377-.48.156-.134.337-.236.532-.299.196-.064.402-.088.607-.072v-.31c-.006-.029-.005-.058.001-.086.007-.029.02-.055.038-.078s.041-.042.067-.055c.026-.013.055-.02.084-.021Zm-.17 3v-2.18c-.78 0-1.29.48-1.29 1s.26.97 1.29 1.22v-.04Zm.35.49v2.2c.8 0 1.32-.48 1.32-1.08 0-.6-.3-.85-1.3-1.11l-.02-.01ZM153.73 170.25l2.61-2.36c.15-.135.27-.301.352-.485.083-.184.126-.383.128-.585-.005-.379-.159-.742-.428-1.009-.269-.267-.633-.418-1.012-.421-.368-.007-.725.125-1 .37l-.27.24c-.017.019-.038.034-.061.045-.023.011-.048.016-.074.016-.025 0-.051-.005-.074-.016s-.044-.026-.061-.045c-.019-.018-.035-.039-.045-.064-.011-.024-.016-.05-.016-.076 0-.026.005-.052.016-.076.01-.025.026-.046.045-.064l.27-.25c.343-.302.783-.469 1.24-.47.481.005.941.199 1.281.539.34.34.534.8.539 1.281 0 .256-.054.509-.157.743-.104.234-.254.444-.443.617l-2.24 2H157c.026 0 .051.005.075.015.024.011.045.025.063.044.018.019.032.041.041.065.009.024.012.05.011.076 0 .05-.02.099-.056.134-.035.036-.084.056-.134.056h-3.15c-.026.003-.051 0-.076-.009-.024-.009-.046-.023-.064-.041-.029-.04-.043-.089-.039-.139.003-.049.024-.096.059-.131ZM159.07 169.79c.106 0 .208.042.283.117.075.075.117.177.117.283 0 .106-.042.208-.117.283-.075.075-.177.117-.283.117-.106 0-.208-.042-.283-.117-.075-.075-.117-.177-.117-.283 0-.106.042-.208.117-.283.075-.075.177-.117.283-.117ZM160.41 170c-.019-.018-.035-.039-.045-.064-.011-.024-.016-.05-.016-.076 0-.026.005-.052.016-.076.01-.025.026-.046.045-.064.039-.037.091-.058.145-.058.054 0 .106.021.145.058.283.278.664.432 1.06.43.394-.003.772-.16 1.051-.439.279-.279.436-.657.439-1.051.003-.198-.034-.394-.108-.578-.074-.184-.183-.351-.322-.492-.284-.276-.664-.43-1.06-.43-.397.001-.778.16-1.06.44-.018.019-.039.035-.063.045-.025.011-.051.017-.077.017-.026 0-.052-.006-.076-.017-.025-.01-.046-.026-.064-.045-.004-.02-.004-.04 0-.06-.005-.023-.005-.047 0-.07l.27-2.25c0-.03.007-.059.021-.085.014-.026.034-.049.059-.065.042-.016.088-.016.13 0h2.6c.053 0 .104.021.141.059.038.037.059.088.059.141 0 .053-.021.104-.059.141-.037.038-.088.059-.141.059H161l-.2 1.66c.36-.211.78-.298 1.194-.245.415.052.8.24 1.096.535.352.359.55.842.55 1.345s-.198.986-.55 1.345c-.359.349-.839.547-1.34.55-.256-.014-.507-.079-.738-.193-.23-.113-.435-.272-.602-.467ZM165.21 167.79c-.013-.689.175-1.366.54-1.95.136-.253.338-.464.585-.611.246-.147.528-.225.815-.225.287 0 .569.078.815.225.247.147.449.358.585.611.353.591.54 1.267.54 1.955 0 .689-.187 1.364-.54 1.955-.136.253-.338.464-.585.611-.246.148-.528.225-.815.225-.287 0-.569-.077-.815-.225-.247-.147-.449-.358-.585-.611-.366-.587-.553-1.268-.54-1.96Zm.4 0c-.016.613.148 1.218.47 1.74.11.191.265.352.451.469.187.117.399.186.619.201.219-.018.431-.088.617-.204.186-.117.341-.277.453-.466.314-.524.479-1.124.479-1.735s-.165-1.211-.479-1.735c-.108-.192-.263-.354-.45-.471-.187-.117-.4-.186-.62-.199-.221.011-.435.078-.623.195-.187.118-.341.281-.447.475-.321.519-.484 1.12-.47 1.73Z"/><path fill="#25B679" d="M232.77 116.94h-43.95v43.95h43.95v-43.95Z"/><path fill="#fff" d="M232.77 116.94h-43.95v43.95h43.95v-43.95Z" opacity=".5"/><path fill="#fff" d="M218.51 144.88c5.57 5.65 11.17 11.57 11.17 11.57-.129.467-.384.889-.736 1.22-.353.332-.79.56-1.264.66l-11.3-11.45-.58-.58-.39-.4-1.16-1.18-.4-.4-2.3-2.32-.39-.4c-2.27-2.29-4-4-4.49-4.55-2.52-2.56-14.8-7.86-14.8-7.86s-1-.65.32-2.35c0 0 4.76 2.25 9.21 4.5l-10.4-6.6c-.007-.347.073-.69.234-.998.161-.308.397-.57.686-.762l5.94 3.93-5.32-5.13s.13-.83 1.56-1.48l9.19 9.48-6.53-8.63c.394-.53.937-.93 1.56-1.15 0 0 4 6.06 9.66 13.61L202 123.52c.204-.24.456-.434.741-.568.284-.135.594-.207.909-.212 0 0 4.66 11.11 9.59 16.82l.37.42c.17.19.35.37.52.55l1.8 1.78.39.4 1.17 1.17.39.4.63.6Z"/><path fill="#455A64" d="M203.69 122.74s4.66 11.11 9.59 16.82l-2.12 2c-2.27-2.29-4-4-4.49-4.55-2.52-2.56-14.8-7.86-14.8-7.86s-1-.65.32-2.35c0 0 4.76 2.25 9.21 4.5l-10.4-6.56c-.007-.347.073-.69.234-.998.161-.308.397-.57.686-.762l5.94 3.93-5.32-5.13s.13-.83 1.56-1.48l9.19 9.48-6.53-8.63c.394-.53.937-.93 1.56-1.15 0 0 4 6.06 9.66 13.61L202 123.52c.208-.245.467-.442.759-.577.292-.134.61-.204.931-.203ZM216 142.32l-2.11 2-2.34-2.32 2.1-2c.17.19.35.37.52.55l1.83 1.77ZM217.54 143.89l-2.11 2-1.16-1.18 2.1-2 1.17 1.18ZM218.51 144.88l-2.11 2-.58-.58 2.11-2 .58.58Z"/><path fill="#A6A6A6" d="M203.21 164.5c.05.002.097.023.132.058s.056.082.058.132v.31c.519.04 1.014.235 1.42.56.035.019.064.046.085.079.021.034.033.072.035.111-.003.054-.026.105-.065.142-.039.037-.091.058-.145.058-.026.001-.052-.004-.077-.014-.024-.011-.045-.026-.063-.046-.343-.283-.759-.464-1.2-.52v2.24c1.21.25 1.72.71 1.72 1.49-.011.211-.065.417-.158.607-.093.189-.223.358-.382.497-.16.138-.346.242-.547.307-.201.065-.413.088-.623.069v.63c0 .05-.02.099-.056.134-.035.036-.084.056-.134.056s-.099-.02-.134-.056c-.036-.035-.056-.084-.056-.134v-.63c-.67-.051-1.304-.326-1.8-.78-.027-.019-.05-.045-.066-.074-.015-.03-.024-.063-.024-.096.005-.052.027-.1.064-.136.036-.037.084-.059.136-.064.026-.002.053.003.077.013.024.011.046.027.063.047.425.409.974.666 1.56.73V168c-1.2-.27-1.69-.71-1.69-1.51.008-.208.057-.412.145-.601s.214-.357.369-.496c.155-.14.336-.246.533-.313.197-.068.405-.095.613-.08v-.31c.001-.026.008-.052.019-.076s.027-.045.047-.063c.019-.017.042-.031.067-.04.024-.008.051-.012.077-.011Zm-.18 3v-2.18c-.302-.034-.605.052-.844.239-.24.187-.396.46-.436.761 0 .68.25.97 1.25 1.22l.03-.04Zm.36.49v2.2c.8 0 1.32-.48 1.32-1.08 0-.6-.29-.85-1.32-1.11v-.01ZM207.05 165.56l-.79.47h-.1c-.033 0-.066-.01-.094-.027-.028-.018-.051-.043-.066-.073-.014-.021-.023-.045-.027-.07-.004-.025-.003-.051.004-.076.006-.024.018-.047.034-.067.016-.02.036-.036.059-.047l1.08-.66c.046-.02.097-.022.145-.008.047.015.088.046.115.088.015.045.015.095 0 .14v5.14c0 .05-.02.099-.056.134-.035.036-.084.056-.134.056-.05-.002-.096-.023-.132-.058-.035-.035-.055-.082-.058-.132l.02-4.81ZM209.43 169.79c.053-.001.106.008.155.028.049.019.094.049.131.086.037.038.067.082.086.131.02.05.029.102.028.155.001.053-.008.106-.028.155-.019.049-.049.094-.086.131-.037.037-.082.067-.131.086-.049.02-.102.029-.155.028-.053.001-.105-.008-.155-.028-.049-.019-.093-.049-.131-.086-.037-.037-.067-.082-.086-.131-.02-.049-.029-.102-.028-.155 0-.106.042-.208.117-.283.075-.075.177-.117.283-.117ZM210.58 167.79c-.017-.688.168-1.365.53-1.95.148-.243.352-.447.596-.593.244-.147.52-.231.804-.247.284.014.561.098.805.244.245.147.449.352.595.596.36.589.55 1.265.55 1.955 0 .69-.19 1.366-.55 1.955-.146.244-.35.449-.595.596-.244.146-.521.23-.805.244-.284-.016-.56-.1-.804-.247-.244-.146-.448-.35-.596-.593-.362-.588-.546-1.269-.53-1.96Zm.39 0c-.016.613.148 1.218.47 1.74.11.19.265.351.452.468.186.117.399.186.618.202.221-.017.434-.087.622-.203.188-.117.345-.277.458-.467.308-.526.47-1.125.47-1.735 0-.61-.162-1.209-.47-1.735-.11-.193-.266-.355-.455-.472-.188-.117-.403-.185-.625-.198-.22.013-.434.08-.621.198-.187.117-.342.279-.449.472-.31.522-.463 1.123-.44 1.73h-.03ZM216.26 167.79c-.016-.688.168-1.365.53-1.95.148-.243.352-.447.596-.593.244-.147.52-.231.804-.247.285.014.561.098.805.244.245.147.449.352.595.596.36.589.55 1.265.55 1.955 0 .69-.19 1.366-.55 1.955-.146.244-.35.449-.595.596-.244.146-.52.23-.805.244-.284-.016-.56-.1-.804-.247-.244-.146-.448-.35-.596-.593-.362-.588-.546-1.269-.53-1.96Zm.39 0c-.016.613.148 1.218.47 1.74.098.201.25.37.439.488s.408.181.631.181c.223 0 .442-.063.631-.181s.341-.287.439-.488c.314-.524.479-1.124.479-1.735s-.165-1.211-.479-1.735c-.098-.201-.25-.37-.439-.488s-.408-.181-.631-.181c-.223 0-.442.063-.631.181s-.341.287-.439.488c-.321.519-.484 1.12-.47 1.73Z"/><path fill="#25B679" d="M284.73 116.94h-43.95v43.95h43.95v-43.95Z"/><path fill="#fff" d="M284.73 116.94h-43.95v43.95h43.95v-43.95Z" opacity=".5"/><path fill="#fff" d="M249.7 144.29c3.44 11.21 14 9.78 17 8.86 3-.92 12.52-5.65 9.07-16.86-3.45-11.21-14.7-8.62-16.71-8-2.27.71-12.8 4.8-9.36 16Z"/><path fill="#455A64" d="M260 129.82s.47 4.22 7.87 1.69c.03 0-4.98-5.32-7.87-1.69Z"/><path fill="#455A64" d="M260.75 131.57s3.48.23 2.49-6.11c0 0-5.02 3.28-2.49 6.11Z"/><path fill="#455A64" d="M260.47 130.45s-1.21 3.27-6.6-.22c0 0 5.05-3.23 6.6.22Z"/><path fill="#455A64" d="M260.24 129.62s-3.24 2.74 3 7.47c-.02 0 1.6-7.09-3-7.47Z"/><path fill="#455A64" d="M259.9 130.23s-4.67-1.31-4.06 6.67c0 0 7.16-2.48 4.06-6.67Z"/><path fill="#263238" d="M260.68 131.21c.121-1.335-.08-2.679-.586-3.92-.507-1.24-1.304-2.341-2.324-3.21-.583.034-1.138.258-1.582.637-.444.379-.753.893-.878 1.463 0 0 4 2.23 4.26 5.85l.93-.55"/><path fill="#A6A6A6" d="M255.27 164.5c.051 0 .101.02.138.055.037.035.06.084.062.135v.31c.519.042 1.013.237 1.42.56.032.021.059.049.078.082.019.033.03.07.032.108-.003.039-.017.077-.04.108-.023.032-.055.056-.091.071-.037.015-.077.019-.115.012-.039-.007-.075-.025-.104-.051-.342-.285-.758-.465-1.2-.52v2.24c1.22.25 1.73.71 1.73 1.49-.011.211-.065.417-.158.607-.092.189-.223.358-.382.497-.16.138-.346.242-.547.307-.201.065-.413.088-.623.069v.63c-.002.051-.025.1-.062.135s-.087.055-.138.055c-.05-.002-.096-.023-.132-.058-.035-.035-.055-.082-.058-.132v-.63c-.669-.058-1.301-.331-1.8-.78-.024-.021-.044-.047-.058-.076-.014-.03-.021-.062-.022-.094.003-.052.024-.102.061-.139.037-.037.087-.059.139-.061.026-.002.053.003.077.013.024.011.046.027.063.047.425.409.974.666 1.56.73V168c-1.2-.27-1.7-.71-1.7-1.51.015-.205.071-.405.164-.589.092-.183.22-.347.377-.48.156-.134.337-.236.532-.299.196-.064.402-.088.607-.072v-.31c-.006-.029-.005-.058.001-.086.007-.029.02-.055.038-.078s.041-.042.067-.055c.026-.013.055-.02.084-.021Zm-.17 3v-2.18c-.78 0-1.29.48-1.29 1s.26.97 1.29 1.22v-.04Zm.35.49v2.2c.8 0 1.32-.48 1.32-1.08 0-.6-.28-.85-1.32-1.11v-.01ZM259.12 165.56l-.8.47h-.09c-.035.001-.069-.009-.099-.026-.03-.018-.055-.043-.071-.074-.014-.021-.023-.045-.027-.07-.004-.025-.003-.051.004-.076.006-.024.018-.047.034-.067.016-.02.036-.036.059-.047l1.08-.66c.034-.018.072-.026.11-.023.039.003.075.017.106.04.03.023.054.054.067.09.013.037.015.076.007.113v5.14c0 .05-.02.099-.056.134-.035.036-.084.056-.134.056s-.099-.02-.134-.056c-.036-.035-.056-.084-.056-.134v-4.81ZM261.5 169.79c.106 0 .208.042.283.117.075.075.117.177.117.283 0 .106-.042.208-.117.283-.075.075-.177.117-.283.117-.106 0-.208-.042-.283-.117-.075-.075-.117-.177-.117-.283 0-.106.042-.208.117-.283.075-.075.177-.117.283-.117ZM262.84 170c-.019-.018-.035-.039-.045-.064-.011-.024-.016-.05-.016-.076 0-.026.005-.052.016-.076.01-.025.026-.046.045-.064.039-.037.091-.058.145-.058.054 0 .106.021.145.058.283.278.664.432 1.06.43.394-.003.772-.16 1.051-.439.279-.279.436-.657.439-1.051.003-.198-.034-.394-.108-.578-.074-.184-.183-.351-.322-.492-.284-.276-.664-.43-1.06-.43-.397.001-.778.16-1.06.44-.018.019-.039.035-.063.046-.025.01-.051.016-.077.016-.026 0-.052-.006-.076-.016-.024-.011-.046-.027-.064-.046-.022-.015-.039-.036-.05-.06-.005-.023-.005-.047 0-.07l.27-2.25c.003-.051.025-.1.062-.135s.087-.055.138-.055h2.61c.053 0 .104.021.142.059.037.037.058.088.058.141 0 .053-.021.104-.058.141-.038.038-.089.059-.142.059h-2.44l-.2 1.66c.36-.211.78-.298 1.195-.245.414.052.799.24 1.095.535.353.359.55.842.55 1.345s-.197.986-.55 1.345c-.359.349-.839.547-1.34.55-.255-.007-.506-.066-.738-.173-.232-.106-.44-.258-.612-.447ZM267.64 167.79c-.013-.689.175-1.366.54-1.95.136-.253.338-.464.585-.611.246-.147.528-.225.815-.225.287 0 .569.078.815.225.247.147.449.358.585.611.353.591.54 1.267.54 1.955 0 .689-.187 1.364-.54 1.955-.136.253-.338.464-.585.611-.246.148-.528.225-.815.225-.287 0-.569-.077-.815-.225-.247-.147-.449-.358-.585-.611-.366-.587-.553-1.268-.54-1.96Zm.4 0c-.016.613.148 1.218.47 1.74.11.191.265.352.451.469.187.117.399.186.619.201.219-.018.431-.088.617-.204.186-.117.341-.277.453-.466.314-.524.479-1.124.479-1.735s-.165-1.211-.479-1.735c-.108-.192-.263-.354-.45-.471-.187-.117-.4-.186-.62-.199-.221.011-.435.078-.623.195-.187.118-.341.281-.447.475-.335.515-.512 1.116-.51 1.73h.04Z"/><path fill="#25B679" d="M180.81 181.11h-43.95v43.95h43.95v-43.95Z"/><path fill="#fff" d="M180.81 181.11h-43.95v43.95h43.95v-43.95Z" opacity=".5"/><path fill="#fff" d="M171.06 199.38v21.68c0 1.34-2.7 2.11-11.76 2.11-9.06 0-11.75-.77-11.75-2.11v-21.68c0-5.78 6.38-9.55 6.38-10.67v-4.36h10.75v4.36c0 1.12 6.38 4.89 6.38 10.67Z"/><path fill="#37474F" d="M165.29 182.34h-11.96v3.65h11.96v-3.65ZM171.06 205.11h-23.51v11.72h23.51v-11.72Z"/><path fill="#A6A6A6" d="M150.38 229c.051 0 .101.02.138.055.037.035.059.084.062.135v.32c.518.042 1.013.237 1.42.56.032.021.059.049.078.082.019.033.03.07.032.108-.003.039-.017.077-.04.108-.023.032-.055.056-.091.071-.037.015-.077.019-.115.012-.039-.007-.075-.025-.104-.051-.342-.285-.758-.465-1.2-.52v2.24c1.22.26 1.73.71 1.73 1.5-.013.21-.067.416-.16.605-.094.189-.224.357-.383.495-.16.138-.345.243-.545.308-.201.065-.412.09-.622.072v.62c-.003.051-.025.1-.062.135s-.087.055-.138.055c-.05-.002-.097-.023-.132-.058s-.056-.082-.058-.132v-.63c-.67-.051-1.304-.326-1.8-.78-.026-.02-.046-.046-.06-.076-.014-.029-.021-.061-.02-.094.002-.052.024-.102.061-.139.037-.037.087-.059.139-.061.053.001.103.022.14.06.422.413.972.67 1.56.73v-2.28c-1.2-.27-1.7-.7-1.7-1.5.014-.206.069-.407.161-.592.092-.184.22-.349.376-.484s.338-.237.534-.301c.196-.065.403-.089.609-.073v-.31c.002-.05.023-.097.058-.132s.082-.056.132-.058Zm-.17 3v-2.18c-.78 0-1.29.48-1.29 1s.26.98 1.29 1.23V232Zm.35.49v2.21c.8 0 1.32-.48 1.32-1.09 0-.61-.28-.84-1.32-1.07v-.05ZM156.7 229.86l-1.45 1.49c.336.068.648.226.901.458s.438.528.536.857c.097.328.104.678.018 1.01-.086.332-.26.634-.505.875-.361.348-.839.548-1.34.56-.503-.002-.985-.203-1.34-.56-.029-.038-.043-.086-.039-.134.003-.048.024-.093.058-.127s.079-.055.127-.058c.048-.004.096.01.134.039.285.274.665.428 1.06.43.395-.004.774-.158 1.06-.43.141-.14.253-.307.328-.491.076-.183.114-.38.112-.579-.003-.396-.162-.775-.443-1.054s-.661-.436-1.057-.436c-.031-.001-.061-.008-.089-.022-.027-.014-.052-.034-.071-.058-.037-.039-.058-.091-.058-.145 0-.054.021-.106.058-.145l1.39-1.43h-2.15c-.053 0-.104-.021-.141-.059-.038-.037-.059-.088-.059-.141 0-.053.021-.104.059-.141.037-.038.088-.059.141-.059h2.62c.053 0 .104.021.142.059.037.037.058.088.058.141.005.03.005.06 0 .09l-.06.06ZM158.81 234.31c.053-.001.106.008.155.028.049.019.094.049.131.086.037.037.067.082.086.131.02.049.029.102.028.155 0 .106-.042.208-.117.283-.075.075-.177.117-.283.117-.106 0-.208-.042-.283-.117-.075-.075-.117-.177-.117-.283-.001-.053.008-.106.028-.155.019-.049.049-.094.086-.131.038-.037.082-.067.131-.086.05-.02.102-.029.155-.028ZM160 232.31c-.019-.705.168-1.4.54-2 .136-.253.338-.464.585-.611.246-.147.528-.225.815-.225.287 0 .569.078.815.225.247.147.449.358.585.611.367.602.554 1.296.54 2 .008.688-.179 1.364-.54 1.95-.134.256-.335.47-.582.619-.246.15-.529.229-.818.229-.288 0-.571-.079-.818-.229-.247-.149-.448-.363-.582-.619-.365-.584-.553-1.261-.54-1.95Zm.4 0c-.014.61.149 1.211.47 1.73.108.192.263.354.45.471.187.117.4.186.62.199.222-.021.435-.097.62-.221s.336-.292.44-.489c.314-.524.479-1.124.479-1.735s-.165-1.211-.479-1.735c-.108-.192-.263-.354-.45-.471-.187-.117-.4-.186-.62-.199-.221.011-.435.078-.623.195-.187.118-.341.281-.447.475-.344.529-.522 1.149-.51 1.78h.05ZM165.63 232.31c-.019-.705.168-1.4.54-2 .136-.253.338-.464.585-.611.246-.147.528-.225.815-.225.287 0 .569.078.815.225.247.147.449.358.585.611.367.602.554 1.296.54 2 .008.688-.179 1.364-.54 1.95-.134.256-.335.47-.582.619-.247.15-.529.229-.818.229-.288 0-.571-.079-.818-.229-.247-.149-.448-.363-.582-.619-.365-.584-.553-1.261-.54-1.95Zm.4 0c-.014.61.149 1.211.47 1.73.108.192.263.354.45.471.187.117.4.186.62.199.22-.015.432-.084.619-.201.186-.117.341-.278.451-.469.314-.524.479-1.124.479-1.735s-.165-1.211-.479-1.735c-.108-.192-.263-.354-.45-.471-.187-.117-.4-.186-.62-.199-.221.011-.435.078-.623.195-.187.118-.341.281-.447.475-.333.519-.507 1.124-.5 1.74h.03Z"/><path fill="#25B679" d="M232.77 181.11h-43.95v43.95h43.95v-43.95Z"/><path fill="#fff" d="M232.77 181.11h-43.95v43.95h43.95v-43.95Z" opacity=".5"/><path fill="#fff" d="M220.2 190.63h-18.34v32.49h18.34v-32.49Z"/><path fill="#fff" d="M220.2 190.63h-18.34v32.49h18.34v-32.49Z"/><path fill="#455A64" d="M220.2 202.64h-18.34v13.65h18.34v-13.65Z"/><path fill="#fff" d="M220.2 190.63h-18.33l2.27-4.47h13.77l2.29 4.47Z"/><path fill="#DBDBDB" d="M220.2 190.63h-18.33l2.27-4.47h13.77l2.29 4.47Z"/><path fill="#fff" d="M217.91 182.39h-13.8v3.77h13.8v-3.77Z"/><path fill="#A6A6A6" d="M202.53 229c.05.002.097.023.132.058s.056.082.058.132v.32c.519.04 1.014.235 1.42.56.035.019.064.046.085.079.021.034.033.072.035.111-.001.041-.015.081-.038.115-.024.033-.057.059-.096.074-.038.015-.08.018-.12.009-.04-.008-.077-.029-.106-.058-.338-.285-.751-.465-1.19-.52v2.24c1.21.26 1.72.71 1.72 1.5-.013.21-.067.416-.16.605-.094.189-.224.357-.383.495s-.345.243-.545.308c-.201.065-.412.09-.622.072v.62c0 .05-.02.099-.056.134-.035.036-.084.056-.134.056s-.099-.02-.134-.056c-.036-.035-.056-.084-.056-.134v-.63c-.67-.051-1.304-.326-1.8-.78-.028-.018-.051-.044-.067-.073-.015-.03-.023-.063-.023-.097.005-.052.027-.1.064-.136.036-.037.085-.059.136-.064.053.001.103.022.14.06.423.413.972.67 1.56.73v-2.28c-1.2-.27-1.69-.7-1.69-1.5.013-.206.066-.408.158-.594.092-.185.22-.35.376-.485.157-.135.339-.238.536-.301.197-.064.404-.088.61-.07v-.31c.003-.05.023-.097.058-.132.036-.035.082-.056.132-.058Zm-.18 3v-2.18c-.302-.034-.605.052-.844.239s-.396.46-.436.761c0 .65.25.98 1.28 1.23V232Zm.36.49v2.21c.79 0 1.31-.48 1.31-1.09 0-.61-.28-.84-1.31-1.07v-.05ZM205.45 234.76l2.61-2.36c.277-.253.443-.603.464-.977.02-.374-.107-.742-.354-1.023-.134-.148-.298-.266-.48-.347-.183-.081-.38-.123-.58-.123-.368-.009-.726.123-1 .37l-.27.25c-.037.036-.087.055-.139.055-.051-.001-.1-.023-.136-.06-.036-.037-.055-.087-.054-.138 0-.052.022-.101.059-.137l.28-.26c.343-.302.783-.469 1.24-.47.481.005.941.199 1.281.539.34.34.534.8.539 1.281 0 .256-.053.509-.157.743-.103.235-.254.445-.443.617l-2.24 2h2.65c.053 0 .104.021.141.059.038.037.059.088.059.141 0 .053-.021.104-.059.141-.037.038-.088.059-.141.059h-3.15c-.028.002-.056-.003-.082-.013-.026-.011-.049-.027-.068-.047-.018-.021-.032-.046-.04-.073-.008-.027-.011-.055-.008-.083.002-.028.011-.055.024-.08.014-.025.032-.046.054-.064ZM210.79 234.31c.053-.001.106.008.155.028.049.019.094.049.131.086.037.037.067.082.086.131.02.049.029.102.028.155.001.053-.008.105-.028.155-.019.049-.049.093-.086.131-.037.037-.082.067-.131.086-.049.02-.102.029-.155.028-.053 0-.105-.01-.153-.03-.049-.021-.093-.05-.13-.087-.037-.037-.066-.081-.087-.13-.02-.049-.03-.101-.03-.153-.001-.053.008-.106.028-.155.019-.049.049-.094.086-.131.038-.037.082-.067.131-.086.049-.02.102-.029.155-.028ZM212.14 234.55c-.019-.018-.035-.039-.045-.064-.011-.024-.017-.05-.017-.076 0-.026.006-.052.017-.077.01-.024.026-.045.045-.063.039-.037.091-.058.145-.058.054 0 .106.021.145.058.266.268.623.425 1 .44.397-.001.778-.16 1.06-.44.279-.283.436-.663.44-1.06 0-.197-.038-.392-.114-.574-.075-.182-.186-.347-.326-.486-.281-.278-.66-.434-1.055-.434-.395 0-.774.156-1.055.434-.038.034-.088.053-.14.053-.052 0-.101-.019-.14-.053-.025-.016-.043-.041-.05-.07-.005-.02-.005-.04 0-.06l.27-2.26c0-.028.007-.056.021-.081.014-.024.034-.045.059-.059.016-.018.036-.032.059-.041.023-.009.047-.012.071-.009h2.61c.053 0 .104.021.141.059.038.037.059.088.059.141.001.027-.003.053-.012.078-.01.025-.024.048-.043.067-.019.018-.042.033-.067.043-.025.009-.051.013-.078.012h-2.44l-.2 1.66c.303-.176.65-.263 1-.25.501 0 .982.199 1.336.554.355.354.554.835.554 1.336.002.25-.047.497-.143.727-.096.231-.238.439-.417.613-.357.354-.837.555-1.34.56-.255-.007-.506-.065-.738-.172-.232-.106-.441-.259-.612-.448ZM216.94 232.31c-.023-.704.161-1.4.53-2 .148-.243.352-.447.596-.593.244-.147.52-.231.804-.247.284.014.561.098.805.244.245.147.449.352.595.596.375.598.566 1.294.55 2 .01.69-.181 1.367-.55 1.95-.146.246-.35.452-.594.6-.244.148-.521.234-.806.25-.285-.018-.56-.105-.804-.253-.244-.148-.448-.353-.596-.597-.362-.585-.547-1.262-.53-1.95Zm.39 0c-.014.61.149 1.211.47 1.73.098.201.25.37.439.488s.408.181.631.181c.223 0 .442-.063.631-.181s.341-.287.439-.488c.314-.524.479-1.124.479-1.735s-.165-1.211-.479-1.735c-.098-.201-.25-.37-.439-.488-.189-.119-.408-.181-.631-.181-.223 0-.442.062-.631.181-.189.118-.341.287-.439.488-.322.522-.486 1.127-.47 1.74Z"/><path fill="#25B679" d="M284.73 181.11h-43.95v43.95h43.95v-43.95Z"/><path fill="#fff" d="M284.73 181.11h-43.95v43.95h43.95v-43.95Z" opacity=".5"/><path fill="#fff" d="M271.22 199.38v21.68c0 1.34-1.94 2.11-8.47 2.11-6.53 0-8.46-.77-8.46-2.11v-21.68c0-5.78 4.6-9.55 4.6-10.67v-4.36h7.73v4.36c0 1.12 4.6 4.89 4.6 10.67Z"/><path fill="#455A64" d="M267.06 182.34h-8.61v3.65h8.61v-3.65Z"/><path fill="#DBDBDB" d="M268.82 206.77H256.7v8.39h12.12v-8.39Z"/><path fill="#A6A6A6" d="M253.91 229c.051 0 .101.02.138.055.037.035.059.084.062.135v.32c.518.042 1.013.237 1.42.56.032.021.059.049.078.082.019.033.03.07.032.108-.003.039-.017.077-.04.108-.023.032-.055.056-.091.071-.037.015-.077.019-.115.012-.039-.007-.075-.025-.104-.051-.342-.285-.758-.465-1.2-.52v2.24c1.22.26 1.73.71 1.73 1.5-.013.21-.067.416-.16.605-.094.189-.224.357-.383.495s-.345.243-.545.308c-.201.065-.412.09-.622.072v.62c-.003.051-.025.1-.062.135s-.087.055-.138.055c-.05-.002-.097-.023-.132-.058s-.056-.082-.058-.132v-.63c-.67-.051-1.304-.326-1.8-.78-.026-.02-.046-.046-.06-.076-.014-.029-.021-.061-.02-.094.002-.052.024-.102.061-.139.037-.037.087-.059.139-.061.053.001.103.022.14.06.422.413.972.67 1.56.73v-2.28c-1.2-.27-1.7-.7-1.7-1.5.014-.206.069-.407.161-.592.092-.184.22-.349.376-.484s.338-.237.534-.301c.196-.065.403-.089.609-.073v-.31c.002-.05.023-.097.058-.132s.082-.056.132-.058Zm-.17 3v-2.18c-.78 0-1.29.48-1.29 1s.26.98 1.29 1.23V232Zm.35.49v2.21c.8 0 1.32-.48 1.32-1.09 0-.61-.28-.84-1.32-1.07v-.05ZM256.84 234.76l2.61-2.36c.151-.135.271-.3.354-.484.083-.184.126-.384.126-.586-.001-.279-.082-.551-.235-.784-.153-.234-.37-.418-.625-.53-.255-.112-.538-.148-.813-.103-.275.045-.531.169-.737.357l-.28.25c-.018.017-.04.03-.063.039-.024.009-.049.013-.074.012-.025-.001-.05-.007-.073-.017-.022-.011-.043-.026-.06-.044s-.03-.04-.039-.063c-.009-.024-.013-.049-.012-.074.001-.025.007-.05.017-.073.011-.022.026-.043.044-.06l.27-.26c.343-.302.783-.469 1.24-.47.481.005.941.199 1.281.539.34.34.534.8.539 1.281 0 .256-.053.509-.157.743-.103.234-.254.445-.443.617l-2.23 2h2.64c.053 0 .104.021.141.059.038.037.059.088.059.141 0 .053-.021.104-.059.141-.037.038-.088.059-.141.059H257c-.026.001-.052-.004-.077-.014-.024-.011-.045-.026-.063-.046-.035-.035-.056-.082-.059-.131-.004-.05.01-.099.039-.139ZM262.18 234.31c.053-.001.106.008.155.028.049.019.094.049.131.086.037.037.067.082.086.131.02.049.029.102.028.155 0 .106-.042.208-.117.283-.075.075-.177.117-.283.117-.106 0-.208-.042-.283-.117-.075-.075-.117-.177-.117-.283-.001-.053.008-.106.028-.155.019-.049.049-.094.086-.131.038-.037.082-.067.131-.086.05-.02.102-.029.155-.028ZM263.32 232.31c-.019-.705.169-1.4.54-2 .136-.253.338-.464.585-.611.246-.147.528-.225.815-.225.287 0 .569.078.815.225.247.147.449.358.585.611.367.602.554 1.296.54 2 .009.688-.179 1.364-.54 1.95-.134.256-.335.47-.582.619-.246.15-.529.229-.818.229-.288 0-.571-.079-.818-.229-.247-.149-.448-.363-.582-.619-.365-.584-.553-1.261-.54-1.95Zm.4 0c-.014.61.149 1.211.47 1.73.109.192.264.353.451.47.186.117.399.186.619.2.22-.015.432-.084.619-.201s.341-.278.451-.469c.314-.524.479-1.124.479-1.735s-.165-1.211-.479-1.735c-.108-.192-.263-.354-.45-.471-.187-.117-.4-.186-.62-.199-.22.013-.434.08-.621.198-.187.117-.341.279-.449.472-.322.522-.486 1.127-.47 1.74ZM269 232.31c-.019-.705.169-1.4.54-2 .136-.253.338-.464.585-.611.246-.147.528-.225.815-.225.287 0 .569.078.815.225.247.147.449.358.585.611.367.602.554 1.296.54 2 .009.688-.179 1.364-.54 1.95-.134.256-.335.47-.582.619-.246.15-.529.229-.818.229-.288 0-.571-.079-.818-.229-.247-.149-.448-.363-.582-.619-.365-.584-.553-1.261-.54-1.95Zm.4 0c-.014.61.149 1.211.47 1.73.108.192.263.354.45.471.187.117.4.186.62.199.222-.021.435-.097.62-.221s.336-.292.44-.489c.314-.524.479-1.124.479-1.735s-.165-1.211-.479-1.735c-.108-.192-.263-.354-.45-.471-.186-.117-.4-.186-.62-.199-.221.011-.435.078-.622.195-.188.118-.342.281-.448.475-.326.535-.486 1.154-.46 1.78Z"/><path fill="#25B679" d="M180.81 263.45h-43.95v43.95h43.95v-43.95Z"/><path fill="#fff" d="M180.81 263.45h-43.95v43.95h43.95v-43.95Z" opacity=".5"/><path fill="#fff" d="M148.69 286.13c0 7.71 3.14 19.76 3.45 19.76h13c.37 0 4.83-10.35 4.83-20.71 0-10.81-7.5-12.66-7.5-13.41v-4.15h-7.62v4.15c-.04.75-6.16 4.78-6.16 14.36Zm14.49-10.77c3.72 0 6.75 10.1 4 11.08-3.85 1.39-7.42-11.05-4-11.08Z"/><path fill="#EBEBEB" d="M159.57 275.36c.21-2.58-5.49-2-7.87 6.47-1.81 6.42.24 19.67 6.64 19.67 7.64 0 8.11-11.24 7.61-11.69-.5-.45-7.33-2.81-6.38-14.45Z"/><path fill="#455A64" d="M153.21 269.99h10.75l-.74-4.74h-9.28l-.73 4.74Z"/><path fill="#A6A6A6" d="M150.4 313c.026-.001.052.003.076.011.024.009.046.023.065.041.019.018.033.039.044.063.01.024.015.049.015.075v.32c.518.042 1.013.237 1.42.56.033.018.06.044.079.075.02.032.03.068.031.105 0 .027-.005.054-.016.079s-.026.047-.046.066c-.02.019-.043.033-.068.043-.026.009-.053.013-.08.012-.051-.001-.1-.019-.14-.05-.337-.293-.756-.474-1.2-.52v2.23c1.22.26 1.73.72 1.73 1.5-.011.211-.065.417-.158.607-.093.189-.223.358-.382.497-.16.138-.346.242-.547.307-.201.065-.413.088-.623.069v.62c0 .026-.005.051-.015.075-.011.024-.025.045-.044.063-.019.018-.041.032-.065.041-.024.008-.05.012-.076.011-.05 0-.099-.02-.134-.056-.036-.035-.056-.084-.056-.134v-.63c-.67-.051-1.304-.326-1.8-.78-.025-.018-.046-.042-.06-.07-.014-.028-.021-.059-.02-.09 0-.053.021-.104.059-.141.037-.038.088-.059.141-.059.051-.001.101.017.14.05.419.418.971.677 1.56.73v-2.28c-1.2-.26-1.7-.7-1.7-1.5.031-.415.225-.801.54-1.073.315-.272.725-.407 1.14-.377v-.3c0-.025.005-.05.014-.073.01-.023.024-.044.042-.061.017-.018.038-.032.061-.042.023-.009.048-.014.073-.014Zm-.17 3v-2.18c-.78 0-1.29.48-1.29 1.06 0 .58.26.91 1.29 1.12Zm.35.49v2.21c.8 0 1.32-.48 1.32-1.09 0-.61-.28-.86-1.32-1.09v-.03ZM153.45 318.54c-.019-.018-.035-.039-.045-.063-.011-.025-.016-.051-.016-.077 0-.026.005-.052.016-.076.01-.024.026-.046.045-.064.039-.037.091-.058.145-.058.054 0 .106.021.145.058.285.274.665.428 1.06.43.377-.015.735-.172 1-.44.28-.28.437-.659.437-1.055 0-.396-.157-.775-.437-1.055-.28-.28-.659-.437-1.055-.437-.396 0-.775.157-1.055.437-.018.019-.039.035-.063.046-.025.01-.051.016-.077.016-.026 0-.052-.006-.076-.016-.024-.011-.046-.027-.064-.046-.022-.019-.039-.043-.05-.07v-.06l.27-2.26c0-.028.007-.056.021-.081.014-.024.035-.045.059-.059.036-.032.082-.05.13-.05h2.6c.053 0 .104.021.142.059.037.037.058.088.058.141.002.027-.003.053-.012.078-.01.025-.024.048-.043.067-.019.019-.042.033-.067.043-.025.009-.051.014-.078.012H154l-.2 1.66c.306-.169.651-.255 1-.25.248 0 .493.049.722.144.229.095.436.235.611.41.175.176.313.384.407.614.094.229.141.474.14.722.003.25-.043.499-.138.731-.094.232-.234.442-.412.619-.359.352-.842.55-1.345.55s-.986-.198-1.345-.55l.01-.07ZM158.79 318.29c.053-.001.106.008.155.028.049.019.094.049.131.086.037.038.067.082.086.131.02.05.029.102.028.155 0 .106-.042.208-.117.283-.075.075-.177.117-.283.117-.106 0-.208-.042-.283-.117-.075-.075-.117-.177-.117-.283-.001-.053.008-.105.028-.155.019-.049.049-.093.086-.131.038-.037.082-.067.131-.086.049-.02.102-.029.155-.028ZM159.93 316.29c-.019-.705.169-1.4.54-2 .136-.253.338-.464.585-.611.246-.148.528-.225.815-.225.287 0 .569.077.815.225.247.147.449.358.585.611.367.602.554 1.296.54 2 .009.688-.179 1.364-.54 1.95-.134.256-.335.47-.582.619-.246.15-.529.229-.818.229-.288 0-.571-.079-.818-.229-.247-.149-.448-.363-.582-.619-.365-.584-.553-1.261-.54-1.95Zm.4 0c-.014.613.149 1.217.47 1.74.11.191.265.352.451.469.187.117.399.186.619.201.219-.018.431-.088.617-.204.186-.117.342-.277.453-.466.315-.526.481-1.127.481-1.74s-.166-1.214-.481-1.74c-.11-.191-.264-.352-.451-.469-.187-.117-.399-.186-.619-.201-.22.013-.433.082-.62.199s-.342.279-.45.471c-.321.523-.484 1.127-.47 1.74ZM165.61 316.29c-.019-.705.169-1.4.54-2 .136-.253.338-.464.585-.611.246-.148.528-.225.815-.225.287 0 .569.077.815.225.247.147.449.358.585.611.367.602.554 1.296.54 2 .009.688-.179 1.364-.54 1.95-.134.256-.335.47-.582.619-.246.15-.529.229-.818.229-.288 0-.571-.079-.818-.229-.247-.149-.448-.363-.582-.619-.365-.584-.553-1.261-.54-1.95Zm.4 0c-.014.613.149 1.217.47 1.74.11.191.265.352.451.469.187.117.399.186.619.201.219-.018.431-.088.617-.204.186-.117.342-.277.453-.466.315-.526.481-1.127.481-1.74s-.166-1.214-.481-1.74c-.109-.191-.264-.352-.451-.469-.187-.117-.399-.186-.619-.201-.22.013-.433.082-.62.199s-.342.279-.45.471c-.324.522-.491 1.126-.48 1.74h.01Z"/><path fill="#25B679" d="M232.77 263.45h-43.95v43.95h43.95v-43.95Z"/><path fill="#fff" d="M232.77 263.45h-43.95v43.95h43.95v-43.95Z" opacity=".5"/><path fill="#fff" d="M223.58 274.87h-25.31c-2.518 0-4.56 2.042-4.56 4.56v15.34c0 2.518 2.042 4.56 4.56 4.56h25.31c2.518 0 4.56-2.042 4.56-4.56v-15.34c0-2.518-2.042-4.56-4.56-4.56Z"/><path fill="#455A64" d="M224.23 271.81h-26.62v3.06h26.62v-3.06ZM228.36 280.8h-34.65v12.59h34.65V280.8Z"/><path fill="#fff" d="M221.42 287.1c0 2.93-4.7 5.3-10.5 5.3s-10.5-2.37-10.5-5.3c0-2.93 4.7-5.3 10.5-5.3s10.5 2.37 10.5 5.3Z"/><path fill="#A6A6A6" d="M202.23 313c.026-.001.052.003.076.011.024.009.046.023.065.041.019.018.034.039.044.063.01.024.015.049.015.075v.32c.518.042 1.013.237 1.42.56.042.02.076.054.095.096.02.043.024.09.012.135-.012.045-.039.085-.077.112-.037.027-.084.04-.13.037-.051 0-.101-.018-.14-.05-.337-.293-.756-.474-1.2-.52v2.23c1.22.26 1.73.72 1.73 1.5-.013.21-.067.416-.16.605-.094.189-.224.357-.383.495s-.345.243-.545.308c-.201.065-.412.09-.622.072v.62c0 .026-.005.051-.015.075-.01.024-.025.045-.044.063-.019.018-.041.032-.065.041-.024.008-.05.012-.076.011-.05 0-.099-.02-.134-.056-.036-.035-.056-.084-.056-.134v-.63c-.67-.051-1.304-.326-1.8-.78-.027-.018-.049-.041-.064-.069-.016-.028-.025-.059-.026-.091.002-.052.024-.102.061-.139.037-.037.087-.059.139-.061.054-.001.107.017.15.05.419.418.971.677 1.56.73v-2.28c-1.2-.26-1.7-.7-1.7-1.5.031-.415.225-.801.54-1.073.315-.272.725-.407 1.14-.377v-.3c0-.025.005-.05.014-.073.01-.023.024-.044.042-.061.017-.018.038-.032.061-.042.023-.009.048-.014.073-.014Zm-.17 3v-2.18c-.78 0-1.29.48-1.29 1.06 0 .58.23.91 1.29 1.12Zm.35.49v2.21c.8 0 1.32-.48 1.32-1.09 0-.61-.28-.86-1.32-1.09v-.03ZM208.37 317.94h-3.06c-.037.003-.075-.005-.107-.024s-.058-.047-.073-.081c-.016-.034-.02-.072-.013-.109.007-.037.026-.07.053-.096l3.24-4c.017-.019.038-.034.061-.045.023-.01.049-.016.074-.016.026 0 .051.006.074.016.023.011.044.026.061.045.027.029.048.063.06.1v3.86h.38c.029-.007.06-.007.089 0 .029.007.057.02.08.039.024.018.043.042.056.069.013.027.019.057.019.087 0 .03-.006.06-.019.087-.013.027-.032.051-.056.069-.023.019-.051.032-.08.039-.029.007-.06.007-.089 0h-.38v1c-.003.051-.025.1-.062.135s-.087.055-.138.055c-.05-.002-.096-.023-.132-.058-.035-.035-.056-.082-.058-.132l.02-1.04Zm0-.39v-3.27l-2.65 3.27h2.65ZM211.09 318.29c.053-.001.106.008.155.028.049.019.094.049.131.086.037.038.067.082.086.131.02.05.029.102.028.155 0 .106-.042.208-.117.283-.075.075-.177.117-.283.117-.106 0-.208-.042-.283-.117-.075-.075-.117-.177-.117-.283-.001-.053.008-.105.028-.155.019-.049.049-.093.086-.131.038-.037.082-.067.131-.086.05-.02.102-.029.155-.028ZM212.43 318.54c-.019-.018-.035-.039-.045-.064-.011-.024-.016-.05-.016-.076 0-.026.005-.052.016-.076.01-.025.026-.046.045-.064.039-.037.091-.058.145-.058.054 0 .106.021.145.058.285.274.665.428 1.06.43.395-.002.772-.16 1.05-.44.139-.139.249-.303.324-.484.074-.181.113-.375.113-.571 0-.196-.039-.39-.113-.571-.075-.181-.185-.345-.324-.484-.138-.139-.303-.248-.484-.323-.181-.075-.375-.114-.571-.114-.196 0-.39.039-.571.114-.181.075-.345.184-.484.323-.018.019-.039.035-.063.045-.025.011-.051.017-.077.017-.026 0-.052-.006-.076-.017-.024-.01-.046-.026-.064-.045-.022-.019-.039-.043-.05-.07v-.06l.27-2.26c0-.028.007-.056.021-.081.014-.024.035-.045.059-.059.036-.033.082-.05.13-.05h2.6c.027-.001.053.003.078.012.025.01.048.024.067.043.019.019.033.042.043.067.009.025.014.051.012.078.002.027-.003.053-.012.078-.01.025-.024.048-.043.067-.019.018-.042.033-.067.043-.025.009-.051.013-.078.012H213l-.2 1.66c.306-.169.651-.256 1-.25.248 0 .493.049.722.144.229.095.436.235.611.41.175.176.313.384.407.613.094.23.141.475.14.723.003.25-.043.499-.138.731-.094.232-.235.442-.412.619-.359.352-.842.55-1.345.55s-.986-.198-1.345-.55l-.01-.07ZM217.23 316.29c-.019-.705.169-1.4.54-2 .136-.253.338-.464.585-.611.246-.148.528-.225.815-.225.287 0 .569.077.815.225.247.147.449.358.585.611.367.602.554 1.296.54 2 .009.688-.179 1.364-.54 1.95-.134.256-.335.47-.582.619-.246.15-.529.229-.818.229-.288 0-.571-.079-.818-.229-.247-.149-.448-.363-.582-.619-.365-.584-.553-1.261-.54-1.95Zm.4 0c-.014.613.149 1.217.47 1.74.098.201.25.37.439.488s.408.181.631.181c.223 0 .442-.063.631-.181s.341-.287.439-.488c.315-.526.481-1.127.481-1.74s-.166-1.214-.481-1.74c-.098-.201-.25-.37-.439-.488s-.408-.181-.631-.181c-.223 0-.442.063-.631.181s-.341.287-.439.488c-.321.523-.484 1.127-.47 1.74Z"/><path fill="#25B679" d="M284.73 263.45h-43.95v43.95h43.95v-43.95Z"/><path fill="#fff" d="M284.73 263.45h-43.95v43.95h43.95v-43.95Z" opacity=".5"/><path fill="#fff" d="M273.19 291.29V303h-20.87v-11.71c0-4.09 1-14.84 10.44-14.84s10.43 10.75 10.43 14.84Z"/><path fill="#fff" d="M273.79 304.52h-22.06c-.284 0-.556-.113-.757-.313-.2-.201-.313-.473-.313-.757 0-.14.028-.279.082-.408.054-.129.133-.247.232-.345.1-.099.218-.177.347-.229.13-.053.269-.079.409-.078h22.06c.281 0 .551.112.75.31.198.199.31.469.31.75 0 .282-.111.553-.31.753-.198.2-.468.314-.75.317ZM266.04 274.06h-6.58v5.04h6.58v-5.04Z"/><path fill="#455A64" d="M266.81 271.63h-8.12v3.26h8.12v-3.26Z"/><path fill="#455A64" d="M264.23 268.43h-2.96v3.76h2.96v-3.76Z"/><path fill="#455A64" d="M259.63 267.09c-.217.13-.395.315-.515.537-.121.222-.18.472-.171.725.01.252.086.497.223.71.136.213.327.385.553.498 1 .59 6.34-.72 6.91-.66.57.06 1.89.66 2.07.66.18 0 .77-.3.74-.57-.88-.926-1.997-1.593-3.23-1.93-1.39-.32-5.44-.84-6.58.03Z"/><path fill="#A6A6A6" d="M254.17 313c.026-.001.052.003.076.011.024.009.046.023.065.041.019.018.034.039.044.063.01.024.015.049.015.075v.32c.518.042 1.013.237 1.42.56.033.018.06.044.079.075.02.032.03.068.031.105 0 .027-.005.054-.016.079s-.026.047-.046.066c-.02.019-.043.033-.068.043-.026.009-.053.013-.08.012-.051-.001-.1-.019-.14-.05-.337-.293-.756-.474-1.2-.52v2.23c1.22.26 1.73.72 1.73 1.5-.011.211-.065.417-.158.607-.093.189-.223.358-.382.497-.16.138-.346.242-.547.307-.201.065-.413.088-.623.069v.62c0 .026-.005.051-.015.075-.01.024-.025.045-.044.063-.019.018-.041.032-.065.041-.024.008-.05.012-.076.011-.05 0-.099-.02-.134-.056-.036-.035-.056-.084-.056-.134v-.63c-.67-.051-1.304-.326-1.8-.78-.025-.018-.046-.042-.06-.07-.014-.028-.021-.059-.02-.09 0-.053.021-.104.059-.141.037-.038.088-.059.141-.059.051-.001.101.017.14.05.42.416.971.674 1.56.73v-2.28c-1.2-.26-1.7-.7-1.7-1.5.031-.415.225-.801.54-1.073.315-.272.725-.407 1.14-.377v-.3c0-.025.005-.05.014-.073.01-.023.024-.044.042-.061.017-.018.038-.032.061-.042.023-.009.048-.014.073-.014Zm-.17 3v-2.18c-.78 0-1.29.48-1.29 1.06 0 .58.29.91 1.29 1.12Zm.35.49v2.21c.8 0 1.32-.48 1.32-1.09 0-.61-.28-.86-1.32-1.09v-.03ZM260.49 313.84l-1.49 1.49c.378.064.726.242 1 .51.176.178.315.388.41.62.094.232.142.48.14.73.001.25-.048.497-.144.727-.096.23-.238.439-.416.613-.175.178-.384.319-.614.415-.23.097-.477.146-.726.146s-.496-.049-.726-.146c-.23-.096-.439-.237-.614-.415-.029-.039-.043-.086-.039-.134.003-.048.024-.093.058-.127s.079-.055.127-.058c.048-.004.095.01.134.039.283.278.664.432 1.06.43.396 0 .776-.154 1.06-.43.14-.138.251-.304.327-.486.075-.182.114-.377.113-.574 0-.398-.158-.779-.439-1.061-.282-.281-.663-.439-1.061-.439-.031-.001-.061-.008-.089-.022-.028-.014-.052-.034-.071-.058-.037-.039-.058-.091-.058-.145 0-.054.021-.106.058-.145l1.39-1.43h-2.15c-.053 0-.104-.021-.141-.059-.038-.037-.059-.088-.059-.141 0-.053.021-.104.059-.141.037-.038.088-.059.141-.059h2.62c.053 0 .104.021.141.059.038.037.059.088.059.141.006.03.006.06 0 .09l-.06.06ZM262.6 318.29c.053-.001.106.008.155.028.049.019.094.049.131.086.037.038.067.082.086.131.02.05.029.102.028.155 0 .106-.042.208-.117.283-.075.075-.177.117-.283.117-.106 0-.208-.042-.283-.117-.075-.075-.117-.177-.117-.283-.001-.053.008-.105.028-.155.019-.049.049-.093.086-.131.038-.037.082-.067.131-.086.05-.02.102-.029.155-.028ZM263.94 318.54c-.019-.018-.035-.039-.045-.063-.011-.025-.016-.051-.016-.077 0-.026.005-.052.016-.076.01-.024.026-.046.045-.064.039-.037.091-.058.145-.058.054 0 .106.021.145.058.285.274.665.428 1.06.43.377-.015.735-.172 1-.44.28-.28.437-.659.437-1.055 0-.396-.157-.775-.437-1.055-.28-.28-.659-.437-1.055-.437-.396 0-.775.157-1.055.437-.018.019-.039.035-.063.046-.025.01-.051.016-.077.016-.026 0-.052-.006-.076-.016-.024-.011-.046-.027-.064-.046-.022-.019-.039-.043-.05-.07v-.06l.27-2.26c0-.028.007-.056.021-.081.014-.024.035-.045.059-.059.036-.032.082-.05.13-.05H267c.053 0 .104.021.142.059.037.037.058.088.058.141.002.027-.003.053-.012.078-.01.025-.024.048-.043.067-.019.019-.042.033-.067.043-.025.009-.051.014-.078.012h-2.44l-.2 1.66c.306-.169.651-.255 1-.25.248 0 .493.049.722.144.229.095.436.235.611.41.175.176.313.384.407.614.094.229.141.474.14.722.003.25-.043.499-.138.731-.094.232-.235.442-.412.619-.359.352-.842.55-1.345.55s-.986-.198-1.345-.55l-.06-.07ZM268.74 316.29c-.019-.705.169-1.4.54-2 .136-.253.338-.464.585-.611.246-.148.528-.225.815-.225.287 0 .569.077.816.225.246.147.448.358.584.611.367.602.554 1.296.54 2 .009.688-.179 1.364-.54 1.95-.134.256-.335.47-.582.619-.246.15-.529.229-.818.229-.288 0-.571-.079-.818-.229-.247-.149-.448-.363-.582-.619-.365-.584-.553-1.261-.54-1.95Zm.4 0c-.014.613.149 1.217.47 1.74.11.19.265.351.452.468.186.117.399.186.618.202.219-.018.431-.088.617-.204.186-.117.342-.277.453-.466.315-.526.481-1.127.481-1.74s-.166-1.214-.481-1.74c-.109-.191-.264-.352-.451-.469-.187-.117-.399-.186-.619-.201-.22.014-.433.083-.619.2-.187.117-.342.278-.451.47-.321.523-.484 1.127-.47 1.74Z"/><path fill="#263238" d="M258.96 358.82H163.1v25.93h95.86v-25.93Z"/><path fill="#fff" d="M177.84 373.56h-2.76l-.56 1.48c-.048.118-.129.219-.234.29-.105.071-.229.109-.356.11-.073.01-.147.01-.22 0-.157-.061-.285-.18-.356-.333-.071-.153-.079-.328-.024-.487l2.52-6.71c.051-.118.136-.218.243-.288.108-.071.234-.108.362-.108.128 0 .254.037.362.108.107.07.192.17.243.288l2.51 6.71c.059.158.053.333-.017.486-.069.154-.196.274-.353.334-.073.011-.147.011-.22 0-.126.002-.25-.036-.354-.108-.103-.071-.183-.173-.226-.292l-.56-1.48Zm-.46-1.25-.93-2.45-.92 2.45h1.85ZM181.13 374.81v-6.71c0-.167.066-.327.185-.446.118-.118.278-.184.445-.184h1.34c1.061 0 2.078.421 2.829 1.172.75.75 1.171 1.767 1.171 2.828s-.421 2.078-1.171 2.828c-.751.751-1.768 1.172-2.829 1.172h-1.34c-.085 0-.17-.017-.248-.051-.079-.033-.149-.082-.208-.144-.059-.062-.105-.135-.135-.215-.03-.08-.043-.165-.039-.25Zm1.27-.63h.7c.721 0 1.413-.287 1.923-.797.511-.51.797-1.202.797-1.923 0-.721-.286-1.413-.797-1.923-.51-.51-1.202-.797-1.923-.797h-.7v5.44ZM189 374.81v-6.71c-.001-.082.014-.164.044-.24.031-.077.076-.146.134-.205.058-.059.127-.105.202-.137.076-.032.158-.048.24-.048H191c1.061 0 2.078.421 2.829 1.172.75.75 1.171 1.767 1.171 2.828s-.421 2.078-1.171 2.828c-.751.751-1.768 1.172-2.829 1.172h-1.4c-.083-.003-.165-.022-.241-.057-.075-.034-.143-.084-.199-.146-.056-.061-.099-.134-.126-.212-.028-.079-.039-.162-.034-.245Zm1.26-.63h.74c.721 0 1.413-.287 1.923-.797.511-.51.797-1.202.797-1.923 0-.721-.286-1.413-.797-1.923-.51-.51-1.202-.797-1.923-.797h-.71l-.03 5.44ZM205.45 368.74h-1.81v6.07c.011.089.004.179-.023.264-.026.086-.07.165-.129.232s-.132.121-.214.157c-.081.037-.17.056-.259.056s-.178-.019-.259-.056c-.082-.036-.154-.09-.214-.157-.059-.067-.103-.146-.129-.232-.026-.085-.034-.175-.023-.264v-6.07h-1.8c-.168-.003-.328-.071-.446-.191-.118-.12-.184-.281-.184-.449 0-.167.066-.327.185-.446.118-.118.278-.184.445-.184h4.86c.167 0 .327.066.446.184.118.119.184.279.184.446-.002.167-.069.327-.187.446-.117.119-.276.189-.443.194ZM213.61 368.46c.739.777 1.151 1.808 1.151 2.88 0 1.072-.412 2.103-1.151 2.88-.345.38-.764.684-1.232.894-.469.21-.975.321-1.488.326-.523-.004-1.041-.114-1.52-.323-.48-.21-.912-.515-1.27-.897-.721-.786-1.121-1.814-1.121-2.88 0-1.066.4-2.094 1.121-2.88.357-.382.789-.687 1.269-.895.48-.209.998-.316 1.521-.315.513.001 1.019.109 1.488.318.468.208.888.512 1.232.892Zm-.14 2.88c.001-.741-.277-1.455-.78-2-.23-.255-.51-.459-.824-.598-.313-.14-.653-.212-.996-.212-.343 0-.682.072-.996.212-.314.139-.594.343-.824.598-.507.542-.786 1.258-.78 2-.013.743.267 1.462.78 2 .228.258.508.464.822.605.314.142.654.215.998.215s.684-.073.998-.215c.314-.141.594-.347.822-.605.508-.541.787-1.258.78-2ZM220.07 371.34c.021-1.094.471-2.135 1.253-2.9.782-.766 1.833-1.193 2.927-1.19.95-.004 1.874.305 2.63.88.089.117.137.261.135.408-.002.147-.053.289-.145.404-.091.115-.219.196-.362.23-.144.034-.294.019-.428-.042-.517-.418-1.165-.641-1.83-.63-.763.003-1.496.296-2.05.82-.531.53-.829 1.25-.83 2-.004.372.068.741.211 1.085.142.344.353.655.619.915.554.524 1.287.817 2.05.82.664.013 1.311-.207 1.83-.62.14-.095.31-.135.478-.113.168.022.321.105.432.233.101.137.145.308.125.477-.02.169-.104.324-.235.433-.753.582-1.678.895-2.63.89-1.096.005-2.151-.422-2.933-1.19-.783-.768-1.231-1.814-1.247-2.91ZM233.09 373.56h-2.76l-.56 1.48c-.048.118-.129.219-.234.29-.105.071-.229.109-.356.11-.073.01-.147.01-.22 0-.157-.06-.284-.18-.353-.334-.07-.153-.076-.328-.017-.486l2.51-6.71c.051-.118.136-.218.243-.288.108-.071.234-.108.362-.108.129 0 .254.037.362.108.107.07.192.17.243.288l2.51 6.71c.059.158.053.333-.017.486-.069.154-.196.274-.353.334-.073.011-.147.011-.22 0-.126.002-.25-.036-.354-.108-.103-.071-.183-.173-.226-.292l-.56-1.48Zm-.46-1.25-.93-2.45-.92 2.45h1.85ZM241.65 374.5c.028.077.04.16.036.242-.005.082-.026.162-.062.236-.037.074-.088.14-.15.193-.063.054-.135.094-.214.119-.083.01-.167.01-.25 0-.156-.003-.308-.048-.44-.13-.152-.101-.276-.238-.36-.4-.185-.429-.267-.894-.24-1.36 0-.173-.048-.343-.14-.49-.085-.136-.202-.249-.34-.33-.199-.123-.415-.217-.64-.28h-1.34v2.47c-.003.168-.071.328-.191.446-.12.118-.281.184-.449.184-.082 0-.164-.016-.24-.048-.075-.032-.144-.079-.202-.137-.058-.059-.103-.128-.134-.205-.03-.076-.045-.158-.044-.24v-6.67c-.001-.082.014-.164.044-.24.031-.077.076-.146.134-.205.058-.059.127-.105.202-.137.076-.032.158-.048.24-.048h2c.502.001.991.157 1.401.446.41.289.721.698.89 1.17.17.472.19.985.057 1.469-.133.484-.411.915-.798 1.235.153.12.288.261.4.42.242.364.371.792.37 1.23-.03.222-.03.448 0 .67.105.018.203.063.284.132.081.068.142.158.176.258Zm-1.59-4.58c.001-.155-.028-.308-.086-.451-.058-.143-.144-.273-.253-.383-.109-.11-.238-.197-.381-.256-.142-.059-.295-.09-.45-.09h-1.4v2.34h1.4c.153.001.305-.028.447-.085.142-.058.271-.143.38-.251.109-.108.195-.236.254-.378.059-.141.089-.293.089-.446ZM248.15 368.74h-1.81v6.07c0 .167-.066.327-.184.445-.119.119-.279.185-.446.185-.167 0-.327-.066-.445-.185-.119-.118-.185-.278-.185-.445v-6.07h-1.8c-.083-.001-.164-.019-.24-.052-.076-.033-.145-.08-.202-.14-.058-.059-.103-.129-.134-.206-.03-.077-.045-.159-.044-.242-.001-.082.014-.164.044-.24.031-.077.076-.146.134-.205.058-.059.127-.105.203-.137.075-.032.157-.048.239-.048h4.87c.165.003.323.07.439.188.116.118.181.277.181.442 0 .166-.064.326-.18.446-.116.119-.274.189-.44.194Z"/><path fill="#F7A9A0" d="M321.42 446.12c2.18.7 64.2-.1 66.54-1.63.9-.57 1.31-9.61 1.49-20.56v-.34c0-2.25.07-4.58.08-6.93v-1c.08-15.79-.17-32.18-.17-32.18l-41.49.42 1.25 31.87.05 1.27.25 6.59v.68s-23.61 10.93-26 12.88c-2.39 1.95-4.18 8.24-2 8.93Z"/><path fill="#EBEBEB" d="M321.42 446.12c2.18.7 64.2-.1 66.54-1.63.9-.57 1.31-9.61 1.49-20.56v-.34c0-2.25.07-4.58.08-6.93v-1l-40.41.11.05 1.27.25 6.59v.68s-23.61 10.93-26 12.88c-2.39 1.95-4.18 8.24-2 8.93Z"/><path fill="#25B679" d="M321.42 446.12c1.35.44 25.37.29 44.18-.24 11.75-.32 21.45-.8 22.36-1.39.91-.59 1.3-9.36 1.48-20.1v-.8l-40 .07v.69s-23.6 10.92-26 12.87c-2.4 1.95-4.19 8.21-2.02 8.9Z"/><path fill="#263238" d="M322.09 443.71c10.45-.4 52.64-1 63-.59.08 0 .08.07 0 .07-10.35.62-52.55.87-63 .69-.22-.01-.22-.17 0-.17ZM345 423.83c4.1-.82 9.14-.25 12.32 2.64.13.11 0 .29-.17.25-3.954-1.221-8.027-2.016-12.15-2.37-.069 0-.135-.027-.184-.076-.049-.049-.076-.115-.076-.184 0-.069.027-.135.076-.184.049-.049.115-.076.184-.076ZM342 425.66c4.11-.82 9.15-.25 12.33 2.64.12.11 0 .28-.17.24-3.948-1.215-8.014-2.006-12.13-2.36-.069.004-.137-.02-.188-.066-.052-.046-.083-.11-.087-.179-.004-.069.02-.137.066-.188.046-.052.11-.083.179-.087ZM339.09 427.49c4.1-.82 9.14-.25 12.32 2.64.13.11 0 .28-.17.24-3.948-1.218-8.014-2.013-12.13-2.37-.06-.009-.114-.039-.154-.084-.041-.045-.064-.103-.066-.163-.003-.06.016-.119.053-.167.036-.048.088-.082.147-.096Z"/><path fill="#263238" d="M341.43 420.77c2.94 2.22 6.74 3.1 10.15 4.31.078.02.159.022.238.006.078-.017.152-.053.214-.103.063-.051.112-.116.145-.189.033-.074.047-.154.043-.234.07 0 .13-.07.1-.15-1.299-3.625-3.526-6.846-6.46-9.34-1.74-1.42-4.76-2.39-6.35-.14-1.59 2.25.21 4.54 1.92 5.84Zm-1.09-3.3c-.78-4.51 4.1-2.2 5.33-1.1.79.724 1.528 1.503 2.21 2.33 1.389 1.724 2.691 3.516 3.9 5.37-1.64-.7-3.33-1.25-5-1.89-1.98-.76-6.01-2.18-6.44-4.71Z"/><path fill="#263238" d="M366 418c-1-2.55-4.19-2.31-6.21-1.33-3.426 1.758-6.332 4.381-8.43 7.61-.01.014-.017.031-.019.048-.003.018-.001.036.005.053.006.016.015.031.028.043.013.012.029.021.046.026-.024.077-.03.158-.016.238.014.079.047.154.097.217.049.064.112.115.185.149.073.034.154.05.234.046 3.6-.39 7.5-.37 10.87-1.86 1.94-.91 4.15-2.86 3.21-5.24Zm-8.74 5.38c-1.77.24-3.54.39-5.3.69 1.65-1.47 3.23-3 5-4.33.854-.641 1.75-1.225 2.68-1.75 1.46-.79 6.74-1.91 4.94 2.29-.99 2.28-5.25 2.78-7.35 3.06l.03.04ZM327.28 435.45c1.164-.046 2.324.15 3.409.575 1.084.425 2.068 1.07 2.891 1.895 1.49 1.474 2.356 3.465 2.42 5.56 0 .06-.11.06-.12 0-.386-2.069-1.433-3.957-2.984-5.38-1.551-1.422-3.522-2.303-5.616-2.51-.019 0-.036-.008-.05-.021-.013-.013-.02-.031-.02-.049 0-.019.007-.037.02-.05.014-.013.031-.02.05-.02ZM382.41 433.63c4.7-.05 4.79 7.26.08 7.31-4.71.05-4.79-7.25-.08-7.31Z"/><path fill="#263238" d="M365.6 445.88c11.75-.32 21.45-.8 22.36-1.39.91-.59 1.3-9.36 1.48-20.1-4.82 4.3-16.79 14.97-23.84 21.49Z"/><path fill="#455A64" d="M402.1 204.86s-9.31 104.8-10.83 112.8c-.35 1.82-.57 11.72-.71 24.46-.32 27.78-.13 77.88-.13 77.88h-43.72s1.3-86.81 3.23-102.79c1.93-15.98 14.31-112.35 14.31-112.35h37.85Z"/><path fill="#263238" d="M348.69 412.38c6.82-.14 4.86-.19 11.68-.26 3.34 0 25.28-.22 28.4.29.07 0 .07.13 0 .14-3.12.52-25.06.33-28.4.3-6.82-.07-4.86-.12-11.68-.27-.027 0-.052-.011-.071-.029-.018-.019-.029-.045-.029-.071 0-.027.011-.052.029-.071.019-.019.044-.029.071-.029ZM382.12 362.76l.15-19c0-6.14 0-12.29.32-18.42.6-12.43 3.12-24.64 4.91-36.92 1.79-12.28 3.29-24.63 4.64-37 1.52-13.85 2.86-27.73 4.29-41.59 0-.09.15-.09.14 0-2.05 24.75-4.35 49.49-7.78 74.09-.853 6.12-1.783 12.227-2.79 18.32-1 6.17-2 12.35-2.52 18.58-.52 6.23-.56 12.24-.62 18.36-.073 6.34-.137 12.673-.19 19-.14 14.08-.27 35.75-.41 49.82 0 .056-.022.109-.061.148-.04.04-.093.062-.149.062-.056 0-.109-.022-.148-.062-.04-.039-.062-.092-.062-.148.09-12.54.16-32.69.28-45.24Z"/><path fill="#263238" d="M411.32 204.86s-18.53 104.8-20.05 112.8c-.35 1.82-.57 11.72-.71 24.46l-20.84-137.26h41.6Z"/><path fill="#F7A9A0" d="M372.19 449.82c2.22.54 64-4.65 66.25-6.35.86-.62.63-9.67 0-20.6v-.34c-.12-2.26-.25-4.58-.41-6.92 0-.33-.05-.65-.06-1-1-15.76-2.44-32.08-2.44-32.08l-41.36 3.35 3.5 31.7.14 1.26.72 6.56.07.68s-22.77 12.57-25 14.69c-2.23 2.12-3.6 8.51-1.41 9.05Z"/><path fill="#EBEBEB" d="M372.19 449.82c2.22.54 64-4.65 66.25-6.35.86-.62.63-9.67 0-20.6v-.34c-.12-2.26-.25-4.58-.41-6.92 0-.33-.05-.65-.06-1l-40.3 3 .14 1.26.72 6.56.07.68s-22.77 12.57-25 14.69c-2.23 2.12-3.6 8.48-1.41 9.02Z"/><path fill="#25B679" d="M372.19 449.82c2.22.54 64-4.65 66.25-6.35.86-.62.63-9.67 0-20.6v-.34l-39.91 2.9.07.68s-22.77 12.57-25 14.69c-2.23 2.12-3.6 8.48-1.41 9.02Z"/><path fill="#263238" d="M372.69 447.36c10.39-1.13 52.44-4.71 62.8-5 .09 0 .09.05 0 .06-10.28 1.35-52.35 4.59-62.8 5.15-.21-.03-.22-.18 0-.21ZM394.11 425.92c4-1.11 9.1-.9 12.48 1.75.13.11 0 .29-.15.26-4.025-.931-8.139-1.431-12.27-1.49-.059-.008-.115-.036-.157-.079-.042-.042-.068-.098-.075-.158-.007-.059.006-.12.037-.171.032-.051.079-.091.135-.112ZM391.3 428c4-1.11 9.1-.9 12.48 1.76.13.1 0 .28-.15.25-4.025-.931-8.139-1.431-12.27-1.49-.059-.008-.115-.036-.157-.079-.042-.042-.068-.098-.075-.158-.007-.059.006-.12.037-.171.032-.051.079-.091.135-.112ZM388.49 430c4-1.11 9.1-.9 12.48 1.76.13.1 0 .29-.15.26-4.024-.939-8.138-1.442-12.27-1.5-.06-.008-.115-.036-.157-.079-.042-.042-.068-.098-.075-.158-.007-.059.006-.12.037-.171.031-.051.079-.091.135-.112Z"/><path fill="#263238" d="M390.35 423.11c3.09 2 6.95 2.61 10.44 3.58.36.1.61-.25.6-.56.017-.003.034-.01.048-.02.014-.01.025-.024.033-.039.008-.016.012-.033.012-.051 0-.017-.005-.035-.013-.05-1.551-3.524-3.999-6.579-7.1-8.86-1.84-1.29-4.92-2-6.34.31s.52 4.51 2.32 5.69ZM389 419.9c-1.1-4.44 3.93-2.48 5.24-1.48.841.665 1.633 1.39 2.37 2.17 1.51 1.619 2.935 3.314 4.27 5.08-1.69-.58-3.41-1-5.12-1.53-2-.62-6.12-1.8-6.76-4.24Z"/><path fill="#263238" d="M414.63 418.57c-1.2-2.47-4.34-2-6.28-.88-3.299 1.987-6.017 4.809-7.88 8.18-.008.015-.013.031-.014.048 0 .017.003.034.01.049.006.016.017.029.029.04.013.011.029.019.045.023 0 .32.18.69.55.62 3.56-.65 7.45-.9 10.71-2.63 1.9-1.02 3.97-3.11 2.83-5.45Zm-8.34 6c-1.74.36-3.5.64-5.23 1.07 1.487-1.642 3.059-3.204 4.71-4.68.803-.709 1.656-1.36 2.55-1.95 1.4-.88 6.58-2.37 5.09 1.95-.83 2.37-5.04 3.17-7.12 3.6v.01ZM376.3 439.09c1.155-.151 2.329-.06 3.447.269 1.117.329 2.154.888 3.043 1.641 1.616 1.332 2.652 3.239 2.89 5.32 0 .07-.11.08-.12 0-.563-2.028-1.769-3.819-3.437-5.103-1.668-1.284-3.708-1.992-5.813-2.017-.009-.006-.016-.014-.022-.023-.006-.009-.009-.019-.01-.03-.001-.01.001-.021.004-.031.004-.01.01-.019.018-.026ZM431.06 432.49c4.68-.46 5.41 6.81.72 7.27-4.69.46-5.41-6.76-.72-7.27Z"/><path fill="#455A64" d="m396.76 422.36 43.67-1.85s-11.92-95.85-12.14-101.74c-.57-15.28-10.73-113.95-10.73-113.95h-53.35s3.37 22.78 9.13 37.22c3.868 1.355 7.604 3.062 11.16 5.1 0 0 5 65.25 5.18 73.39.37 16.09 7.08 101.83 7.08 101.83Z"/><path fill="#263238" d="M397.92 414.36c6.81-.43 4.85-.4 11.66-.76 3.34-.17 25.25-1.29 28.39-.91.019 0 .036.007.05.02.013.014.02.031.02.05 0 .019-.007.036-.02.049-.014.014-.031.021-.05.021-3.09.65-25 1.39-28.36 1.5-6.82.22-4.86.08-11.68.23-.026.001-.052-.008-.072-.026-.02-.018-.032-.043-.033-.069-.001-.027.008-.053.026-.072.018-.02.043-.032.069-.033ZM413.65 210.67c2 24.85 4 49.7 6.29 74.53s4.95 49.79 8.2 74.6c1.81 13.85 3.83 33.37 6 47.18 0 .09-.13.13-.15 0-4.4-24.54-7.63-55-10.39-79.75-2.76-24.75-5-49.6-7-74.44-1.13-14.05-2.15-28.11-3.23-42.16-.05-.16.26-.16.28.04ZM371.43 241.05c4.525 1.647 8.898 3.685 13.07 6.09.16.09.05.34-.12.26-4.41-1.89-8.89-3.69-13.19-5.82-.07-.032-.125-.09-.152-.163-.027-.072-.025-.152.007-.222s.09-.125.162-.152c.073-.027.153-.025.223.007ZM370 210.85c0-.15.28-.18.28 0 0 5.22.3 9.82.74 14.7.2 2.27 2 14.8 6 13.89.66-.16 1-.8 1.1-1.8-.019-1.297-.197-2.587-.53-3.84-.43-2.62-.78-5.25-1-7.9-.457-4.932-.403-9.899.16-14.82 0-.035.014-.068.038-.092.024-.024.058-.038.092-.038.034 0 .068.014.092.038.024.024.038.057.038.092-.119 6.84.279 13.68 1.19 20.46.49 3.26 2.14 8.17-1.27 8.67s-5.72-7.71-6.14-10c-1.1-6.392-1.366-12.9-.79-19.36Z"/><path fill="#263238" d="M376.9 239.75c.355.846.652 1.714.89 2.6.253.685.378 1.41.37 2.14-.014.025-.034.046-.059.06-.024.015-.052.023-.081.023-.029 0-.057-.008-.081-.023-.025-.014-.045-.035-.059-.06-.406-.64-.712-1.338-.91-2.07-.3-.81-.62-1.6-.89-2.42-.007-.099.02-.198.077-.28.056-.082.139-.142.234-.171.095-.029.197-.025.289.012.093.036.17.103.22.189Z"/><path fill="#C7C7C7" d="m200.01 424.77-.1-2 105.47-5.42-7.82-47 1.97-.32 8.19 49.21-107.71 5.53Z"/><path fill="#37474F" d="M212.782 438.037c4.798-3.753 5.646-10.685 1.893-15.483-3.753-4.799-10.685-5.646-15.484-1.893-4.798 3.753-5.645 10.685-1.893 15.483 3.753 4.799 10.686 5.646 15.484 1.893Z"/><path fill="#EBEBEB" d="M201 429.32c0 .989.293 1.956.843 2.778.549.822 1.33 1.463 2.244 1.841.913.379 1.919.478 2.888.285.97-.193 1.861-.669 2.561-1.369.699-.699 1.175-1.59 1.368-2.56.193-.97.094-1.975-.285-2.888-.378-.914-1.019-1.695-1.841-2.244-.822-.55-1.789-.843-2.778-.843-1.326 0-2.598.527-3.536 1.464-.937.938-1.464 2.21-1.464 3.536Z"/><path fill="#37474F" d="M293.076 440.032c5.927-1.406 9.592-7.351 8.185-13.278-1.406-5.928-7.351-9.592-13.279-8.186-5.927 1.407-9.591 7.352-8.185 13.279 1.407 5.927 7.352 9.592 13.279 8.185Z"/><path fill="#EBEBEB" d="M285.48 429.32c0 .989.293 1.956.843 2.778.549.822 1.33 1.463 2.244 1.841.913.379 1.919.478 2.888.285.97-.193 1.861-.669 2.561-1.369.699-.699 1.175-1.59 1.368-2.56.193-.97.094-1.975-.285-2.888-.378-.914-1.019-1.695-1.841-2.244-.822-.55-1.789-.843-2.778-.843-1.326 0-2.598.527-3.536 1.464-.937.938-1.464 2.21-1.464 3.536Z"/><path fill="#C7C7C7" d="m218.89 436.93-.11-2 105.48-5.42L314 367.88l1.98-.33 10.62 63.84-107.71 5.54Z"/><path fill="#37474F" d="M231.93 449.956c4.688-3.889 5.336-10.843 1.446-15.531-3.889-4.689-10.843-5.336-15.531-1.447-4.689 3.89-5.336 10.843-1.447 15.532 3.89 4.688 10.844 5.336 15.532 1.446Z"/><path fill="#EBEBEB" d="M219.85 441.48c0 .989.293 1.956.843 2.778.549.822 1.33 1.463 2.244 1.841.913.379 1.919.478 2.888.285.97-.193 1.861-.669 2.56-1.368.7-.7 1.176-1.591 1.369-2.561.193-.969.094-1.975-.285-2.888-.378-.914-1.019-1.695-1.841-2.244-.822-.55-1.789-.843-2.778-.843-1.326 0-2.598.527-3.536 1.464-.937.938-1.464 2.21-1.464 3.536Z"/><path fill="#37474F" d="M319.757 448.739c2.376-5.604-.241-12.073-5.845-14.449-5.605-2.376-12.074.241-14.45 5.846-2.376 5.604.242 12.073 5.846 14.449 5.604 2.376 12.074-.241 14.449-5.846Z"/><path fill="#EBEBEB" d="M304.36 441.48c0 .989.293 1.956.843 2.778.549.822 1.33 1.463 2.244 1.841.913.379 1.919.478 2.888.285.97-.193 1.861-.669 2.561-1.368.699-.7 1.175-1.591 1.368-2.561.193-.969.094-1.975-.285-2.888-.378-.914-1.019-1.695-1.841-2.244-.822-.55-1.789-.843-2.778-.843-1.326 0-2.598.527-3.536 1.464-.937.938-1.464 2.21-1.464 3.536Z"/><path fill="#A6A6A6" d="m196.24 364.06-15.41-70.24 105-17 1.06 73.38-.86.13-89.79 13.73Zm-13-68.61 14.56 66.35 87.09-13.29-1-69.31-100.65 16.25Z"/><path fill="#A6A6A6" d="m207.644 290.489-1.976.309 10.817 69.159 1.976-.309-10.817-69.159ZM235.732 286.037l-1.988.219 7.702 69.877 1.988-.219-7.702-69.877ZM263.208 282.019l-1.999.086 3.04 70.474 1.999-.086-3.04-70.474Z"/><path fill="#A6A6A6" d="m285.699 299.119-98.746 17.874.356 1.968 98.746-17.874-.356-1.968ZM285.747 325.722l-93.771 13.93.294 1.978 93.771-13.93-.294-1.978Z"/><path fill="#DBDBDB" d="m329.64 367.33-44.74-17.28V276.8l68.31 19.81-23.57 70.72Zm-42.74-18.65 41.51 16L350.66 298l-63.76-18.54v69.22Z"/><path fill="#DBDBDB" d="m286.245 299.125-.715 1.867 57.715 22.097.715-1.868-57.715-22.096ZM286.264 325.776l-.756 1.851L335 347.814l.755-1.851-49.491-20.187Z"/><path fill="#DBDBDB" d="m307.662 284.435-9.317 70.013 1.983.263 9.317-70.012-1.983-.264ZM329.824 290.883l-15.659 69.539 1.951.439 15.659-69.539-1.951-.439ZM301.929 221.059l-17.009 56.767 1.916.574 17.009-56.767-1.916-.574ZM369.497 234.546l-18.665 62.293 1.916.574 18.665-62.293-1.916-.574Z"/><path fill="#263238" d="m298.853 218.252-.806 3.917 76.633 15.773.807-3.918-76.634-15.772Z"/><path fill="#25B679" d="m254.22 301.28 18.96 8.64 31.06-6.22-18.63-5.28-31.39 2.86Z"/><path fill="#000" d="m254.22 301.28 18.96 8.64 31.06-6.22-18.63-5.28-31.39 2.86Z" opacity=".1"/><path fill="#E6A36E" d="M287 304c.24 8 2.12 46.27-5.27 47-2.61.27-5-5.69-6.82-14.55-.18-.87-.36-1.77-.53-2.69-.61-3.33-1.15-7-1.59-10.81-.113-.88-.213-1.77-.3-2.67-.37-3.55-.66-7.2-.86-10.86-.05-.89-.1-1.77-.13-2.66-.03-.89-.07-1.51-.09-2.26-.08-2.48-.13-5-.13-7.41v-2.69c.06-4.95.26-9.73.61-14.1.07-.86.15-1.69.22-2.5 1.08-11.19 3.19-19.27 6.09-20.12 6.27-1.81 8.22 26.39 8.8 46.32Z"/><path fill="#CC8A58" d="M282.2 331.62c-.092.07-.193.127-.3.17-.032.046-.077.081-.13.1-2.648.9-5.011 2.483-6.85 4.59-.18-.87-.36-1.77-.53-2.69 1.016-.919 2.206-1.625 3.499-2.079 1.293-.453 2.663-.644 4.031-.561.011-.005.023-.008.035-.008.012 0 .024.003.035.008h.11c.062-.013.127-.001.181.033.053.035.091.09.104.152.013.062.001.127-.033.181-.035.053-.09.091-.152.104ZM281.24 320.13c-.103.037-.211.061-.32.07-.02.018-.044.032-.07.04-.026.009-.053.012-.08.01-2.762.096-5.44.977-7.72 2.54l-.25.19c-.113-.88-.213-1.77-.3-2.67 1.291-.734 2.726-1.178 4.206-1.302 1.48-.125 2.969.074 4.364.582.027.012.048.033.06.06h.11c.052.015.098.047.13.09s.05.096.05.15c0 .054-.018.107-.05.15s-.078.075-.13.09ZM280.7 308.48c-.109.015-.22.015-.33 0-.024.01-.049.015-.075.015-.026 0-.051-.005-.075-.015-2.677-.545-5.455-.305-8 .69-.191.076-.378.163-.56.26-.05-.89-.1-1.77-.13-2.66 1.506-.51 3.107-.674 4.684-.478 1.578.196 3.091.745 4.426 1.608.014.007.025.016.034.029.009.012.014.026.016.041l.1.06c.11.12.21.4-.09.45ZM280.23 296.2c-.109.015-.22.015-.33 0-.023.012-.049.019-.075.019-.026 0-.052-.007-.075-.019-2.677-.545-5.455-.305-8 .69-.151.06-.298.13-.44.21v-2.69c1.473-.464 3.031-.596 4.561-.387 1.53.209 2.995.754 4.289 1.597 0 0 .05.05.06.07l.09.06c.12.12.17.4-.08.45ZM280.24 281.69c-.113-.007-.224-.03-.33-.07-.052.014-.108.014-.16 0-2.443-1.147-5.159-1.587-7.84-1.27.07-.86.15-1.69.22-2.5 1.507-.037 3.005.236 4.402.802 1.397.566 2.662 1.413 3.718 2.488v.08c.024.029.051.056.08.08.14.12.16.4-.09.39Z"/><path fill="#EDAA76" d="M298.8 308.79c-1.1 7.87-5.66 45.67-13.07 44.66-2.61-.34-4-6.73-4.26-15.81 0-.89-.06-1.81-.07-2.75 0-3.4 0-7.09.24-10.93 0-.89.09-1.78.15-2.68.24-3.55.56-7.18 1-10.81.11-.88.21-1.75.32-2.62.11-.87.19-1.49.29-2.22.34-2.45.71-4.88 1.12-7.27.16-.87.31-1.76.46-2.62.88-4.83 1.89-9.43 3-13.62.2-.82.42-1.61.63-2.39 2.94-10.66 6.36-18.06 9.36-18.2 6.39-.31 3.59 27.68.83 47.26Z"/><path fill="#CC8A58" d="M289.44 334.62c-.099.053-.208.084-.32.09-.019.021-.042.038-.068.05-.026.012-.054.019-.082.02-2.718.236-5.315 1.226-7.5 2.86 0-.89-.06-1.81-.07-2.75 1.186-.659 2.493-1.07 3.843-1.207 1.349-.138 2.713.001 4.007.407.027.012.048.033.06.06h.1c.055.007.106.033.144.074.038.041.061.093.064.149.004.055-.012.11-.045.155-.032.045-.079.078-.133.092ZM290.43 323.17c-.112.019-.227.019-.34 0-.024.01-.049.015-.075.015-.026 0-.051-.005-.075-.015-2.673-.564-5.453-.338-8 .65l-.28.12c0-.89.09-1.78.15-2.68 1.437-.404 2.945-.495 4.42-.265 1.475.229 2.884.773 4.13 1.595 0 0 .05.05.06.07l.09.06c.11.12.17.4-.08.45ZM291.84 311.68c-.11-.011-.218-.038-.32-.08-.023.012-.049.019-.075.019-.026 0-.052-.007-.075-.019-2.495-1.164-5.272-1.588-8-1.22l-.6.11c.11-.88.21-1.75.32-2.62 1.611-.127 3.23.1 4.745.663 1.514.563 2.888 1.449 4.025 2.597.006.012.009.026.009.04 0 .014-.003.027-.009.04.021.031.049.059.08.08.15.11.16.4-.1.39ZM293.44 299.58c-.11-.011-.218-.038-.32-.08-.025.012-.052.019-.08.019-.028 0-.055-.007-.08-.019-2.495-1.165-5.271-1.592-8-1.23-.159.023-.316.056-.47.1.16-.87.31-1.76.46-2.62 1.569-.092 3.139.153 4.606.719 1.466.565 2.794 1.439 3.894 2.561.014.008.026.02.035.034.009.014.014.029.015.046l.08.08c.11.11.12.4-.14.39ZM295.87 285.42c-.108-.04-.212-.09-.31-.15-.049.013-.101.013-.15 0-2.173-1.688-4.76-2.759-7.49-3.1.2-.82.42-1.61.63-2.39 3.048.683 5.711 2.522 7.43 5.13.012.032.012.068 0 .1l.06.09c.11.11.08.39-.17.32Z"/><path fill="#25B679" d="M254.22 301.28s1.19 38.22.78 39.68c-.41 1.46-2.68 19.36-2.47 19.86.21.5 18.18 10.81 18.78 10.22.6-.59 1.69-26.37 1.69-29.55 0-3.18.21-31.57.21-31.57l-18.99-8.64Z"/><path fill="#25B679" d="M273.18 309.92 271.31 371s29.16-8.61 29.41-9.09c.25-.48 1.7-17.81 1.33-20.51-.37-2.7 2.19-37.74 2.19-37.74l-31.06 6.26Z"/><path fill="#000" d="M273.18 309.92 271.31 371s29.16-8.61 29.41-9.09c.25-.48 1.7-17.81 1.33-20.51-.37-2.7 2.19-37.74 2.19-37.74l-31.06 6.26Z" opacity=".1"/><path fill="#DBDBDB" d="m232.63 379.32-36.4-15.24-.11-.51-15.37-70.11L226 312l6.63 67.32ZM198 362.64l32.35 13.54-6.24-62.77-40.55-16.65L198 362.64Z"/><path fill="#DBDBDB" d="m196.006 299.892-1.969.347 11.785 67.042 1.97-.347-11.786-67.042ZM210.845 306.203l-1.98.282 9.418 66.173 1.98-.282-9.418-66.173Z"/><path fill="#DBDBDB" d="m191.997 346.094-.66 1.88 36.453 12.797.66-1.88-36.453-12.797ZM187.521 317.42l-.737 1.859 39.993 15.851.737-1.86-39.993-15.85Z"/><path fill="#EBEBEB" d="m232.57 379.29-8.68-67.45 129.34-15.37-23.61 70.92-.62.08-96.43 11.82Zm-6.44-65.71 8.17 63.48 93.83-11.5 22.21-66.73-124.21 14.75Z"/><path fill="#EBEBEB" d="m254.793 309.196-1.992.174 5.674 65.113 1.992-.174-5.674-65.113ZM287.361 305.053l-3.82 66.24 1.997.116 3.819-66.24-1.996-.116ZM320.396 301.049l-12.739 67.417 1.965.371 12.739-67.417-1.965-.371Z"/><path fill="#EBEBEB" d="m344.015 319.705-116.962 13.161.224 1.988 116.962-13.161-.224-1.988ZM335.262 345.922l-105.773 11.061.208 1.989 105.773-11.061-.208-1.989Z"/><path fill="#F7A9A0" d="M377.6 151.37c-5.37 8.44-25.24 39-37.64 39-7.46 0-32.76-12.72-38.34-17-6.53-5 11-20.79 15.48-18.93 5.55 2.29 20.75 11.16 24.3 11.16 3.17 0 12.25-10.19 29.53-21.44 8.88-5.86 11.3-.07 6.67 7.21Z"/><path fill="#F7A9A0" d="M302.26 173.78c-2.34-1.12-12.63-7.2-15.12-9.53-2.49-2.33-9.15-9.57-7.55-11.65 1.6-2.08 3.71-.13 3.71-.13s-2.3-3.47-.54-5.47c1.76-2 5 1.21 5 1.21s-2.13-3.77-.2-5.59c1.93-1.82 4.61 1.9 4.61 1.9s-2.11-3.36.11-4.19c2.67-1 5.86 5.63 8.8 8 .67.54 14.3 10 14.3 10l-13.12 15.45Z"/><path fill="#263238" d="M291.93 144.22c2.36 4.87 4.24 6.59 8.76 9.4.08.06 0 .2-.08.15-4.67-2.35-7.33-4.17-8.92-9.44-.07-.26.13-.33.24-.11ZM287.58 147.84c2.89 4.84 4.9 6.72 9.42 10 .06 0 0 .16-.08.12-4.7-2.86-7.31-4.74-9.56-10-.11-.17.09-.34.22-.12ZM283.53 152.63c3.14 4.49 5.26 6.65 10.06 9.28.017.016.029.037.034.06.004.023.001.047-.009.068-.01.021-.027.039-.047.05-.021.011-.045.015-.068.012-4.461-1.675-8.085-5.037-10.09-9.36-.16-.3-.07-.39.12-.11Z"/><path fill="#25B679" d="M282.14 153.74c3.44 11.21 14 9.78 17 8.86 3-.92 12.52-5.65 9.07-16.86-3.45-11.21-14.7-8.62-16.71-8-2.27.69-12.8 4.79-9.36 16Z"/><path fill="#455A64" d="M292.47 139.27s.47 4.22 7.86 1.69c0 .04-5-5.32-7.86-1.69Z"/><path fill="#455A64" d="M293.19 141s3.47.23 2.49-6.11c0 .02-5.02 3.3-2.49 6.11Z"/><path fill="#455A64" d="M292.91 139.9s-1.21 3.27-6.6-.22c0 0 5.05-3.24 6.6.22Z"/><path fill="#455A64" d="M292.68 139.07s-3.25 2.74 3 7.47c-.02 0 1.6-7.12-3-7.47Z"/><path fill="#455A64" d="M292.34 139.68s-4.68-1.31-4.06 6.67c0 0 7.15-2.48 4.06-6.67Z"/><path fill="#455A64" d="M293.12 140.66c.121-1.335-.08-2.679-.586-3.92-.507-1.24-1.304-2.341-2.324-3.21-.583.034-1.138.258-1.583.637-.444.379-.752.893-.877 1.463 0 0 4 2.23 4.26 5.85l.93-.56"/><path fill="#F7A9A0" d="M320.31 157.8c-.895-3.139-2.022-6.207-3.37-9.18-1.47-2.67-10.6-10.61-12.43-8.74-2.36 2.42 2 8.05 4.51 10.52 0 0-5.46 5.6-3.2 10.31 2.26 4.71 14.49-2.91 14.49-2.91Z"/><path fill="#263238" d="M304.08 140.76c-.56 3.76 2.93 6.8 5.18 9.38.035.036.06.08.075.128.014.048.016.099.006.148-.01.049-.031.095-.063.134-.031.039-.072.07-.118.09-2.14 2.5-4.42 6.65-3.54 10 .003.019 0 .038-.01.054-.01.017-.025.029-.044.035-.018.006-.037.006-.055-.002-.018-.007-.032-.02-.041-.037-1.43-3.47.48-7.72 3-10.31-2.34-2.61-5.71-5.81-4.41-9.63 0-.02.03-.01.02.01Z"/><path fill="#25B679" d="m349.47 157.11 16.7 14.89s9.5-11.44 13.44-22.37c3.94-10.93-5.46-9.62-12.13-5.2-6.67 4.42-18.01 12.68-18.01 12.68Z"/><path fill="#263238" d="M368 168.42c-4.972-4.06-9.688-8.426-14.12-13.07-.06 0 0-.14.09-.08 1.2 1.21 8.58 7.5 14.13 13.06.09.06-.01.15-.1.09Z"/><path fill="#263238" d="M379.6 149.66c-3.93 10.93-13.43 22.34-13.43 22.34l-7.69-6.87c5.09-7 13.31-18.42 17.4-23.93 3.7-.2 6.06 1.98 3.72 8.46Z"/><path fill="#25B679" d="M358.5 219c1 1 62.5.41 62.81 0 .82-1.11-8.6-40.76-15.67-55.8-9.06-19.29-13.86-20.89-16.72-22-3.66-1.38-13.22-.81-14.79-.1-1.77.8-6.28 9.81-8.39 17-4.24 14.34-8.13 59.97-7.24 60.9Z"/><path fill="#F7A9A0" d="M398.1 159.08c-.31 18.94-1.11 41.33-6.35 47.65-7.94 9.57-27.78 19.39-35.91 21.2-3.38.75-12.87-24.8-9.24-25.56 7.73-1.62 25.39-8.94 27-10.53 1.61-1.59 7.68-19.86 12.55-34.15 5.85-17.19 12.13-9.58 11.95 1.39Z"/><path fill="#F7A9A0" d="M350.73 201.29s-10.21 2.6-16.81 4.62c-3.68 1.12-9.82 3.62-12.14 5.68-3.48 3.08-16.06 18.21-12.46 21.34 3.26 2.83 12.42-11.54 12.42-11.54s-10.52 13.69-6 16.38c4.52 2.69 12.74-14.93 12.74-14.93s-10.5 14.3-5.36 16.33c3.88 1.54 12.19-14 12.19-14s-8.93 12.35-5 14.1c4.33 1.93 12.91-11.92 12.91-11.92 10.72 2.77 16.95-.3 21.13-3 1.03-.65-13.62-23.06-13.62-23.06Z"/><path fill="#263238" d="M325.08 216.43c-1.3 1.56-2.62 3.13-3.77 4.81-1.15 1.68-2.25 3.38-3.24 5.15-1.332 2.293-2.402 4.728-3.19 7.26 1.72-4.39 5.75-10.44 6.9-12.11 1.15-1.67 2.21-3.4 3.36-5.07.03-.04-.03-.08-.06-.04ZM331.19 220.48c-2.22 1.75-6.87 8.3-8.67 12.69-.07.18 0 .17.14 0 1.4-2.17 7.08-10.57 8.58-12.66.02-.03-.02-.06-.05-.03ZM337.06 223c-2.758 2.893-4.938 6.288-6.42 10-.08.18.07.15.17 0 2.08-3.37 3.68-6 6.36-9.92.04-.08-.05-.08-.11-.08Z"/><path fill="#25B679" d="m377.55 175.49 22.15 3.31s1.66-14.78-1.05-26.07c-2.71-11.29-9.84-5-13 2.3s-8.1 20.46-8.1 20.46Z"/><path fill="#263238" d="M399 174.43c-6.385-.544-12.73-1.479-19-2.8-.08 0-.05-.14 0-.12 1.67.32 11.31 1.34 19 2.78.14.02.11.14 0 .14Z"/><path fill="#263238" d="M380.72 167.9c1-2.51 2.45-6.08 3.28-8.64h-.06c-.65 1.33-1.24 2.69-1.81 4.07l.06-.25c.14-.77.26-1.54.34-2.32-.23.76-.42 1.52-.58 2.3-.1.48-.18 1-.25 1.46-.3.73-1.06 2.51-1.35 3.23-.48 1.23-3.21 7.88-3.08 7.91.13.03 2.27.25 2.67.32.11 0 .13-.16 0-.15-.4 0-2.09-.31-2.26-.34.46-1.28 1.05-2.53 1.56-3.8s.99-2.53 1.48-3.79ZM401.06 164.13c-.17.67-.31 1.34-.43 2 0 .23-.06.46-.09.7-.06-1.66-.2-3.32-.42-5h-.06c.18 2.79.11 5.56 0 8.35 0 1.35-.1 2.71-.18 4.06 0 .69-.09 1.39-.12 2.08-.03.69-.13 2.35-.13 2.35-.38-.07-1.66-.23-2.12-.27-.11 0-.11.09 0 .1.39.06 2.35.44 2.36.4 0-.73.19-1.59.26-2.31s.12-1.33.17-2c.1-1.43.18-2.86.23-4.3v-2.36c.11-.6.26-1.2.36-1.8.1-.6.22-1.36.29-2 .06-.08-.09-.13-.12 0Z"/><path fill="#F7A9A0" d="M375.86 150.94c3.41 1 9.68-3.92 12.28-8.08.18-.29-.09-3.41-.24-7.23-.08-2.32-.12-4.9 0-7.26 0-.48-15 2.73-15 2.73.669 2.996.971 6.061.9 9.13-.023.337-.077.672-.16 1-.003.053-.003.107 0 .16-.42 1.79-1.09 8.61 2.22 9.55Z"/><path fill="#263238" d="M387 128.38c-.92 4-4 13.43-11.87 13.15-.507-.017-1.012-.074-1.51-.17-.008-.053-.008-.107 0-.16.082-.328.136-.663.16-1 .077-3.076-.225-6.149-.9-9.15 0 0 10.89-2.27 14.12-2.67Z"/><path fill="#F7A9A0" d="M388.79 109.43c2 5.11.44 20.46-3 24.13-5 5.32-13.82 6.49-18.49.32-4.53-6-2.13-25.94 1.79-29.33 5.76-5.0001 16.73-2.67 19.7 4.88Z"/><path fill="#263238" d="M375.05 119.83s.08.06.07.1c-.13 1-.11 2.24.79 2.67v.06c-1.14-.27-1.15-1.87-.86-2.83Z"/><path fill="#263238" d="M376.08 118.84c1.68 0 1.48 3.39-.07 3.35-1.55-.04-1.33-3.38.07-3.35ZM369.24 119.53s-.08 0-.08.08c0 1-.24 2.23-1.19 2.52v.06c1.16-.1 1.41-1.67 1.27-2.66Z"/><path fill="#263238" d="M368.38 118.39c-1.66-.22-2 3.12-.45 3.32 1.55.2 1.84-3.13.45-3.32ZM377.49 117.39c-.45-.14-.84-.35-1.27-.53-.473-.126-.891-.403-1.19-.79-.072-.139-.096-.299-.067-.453.029-.154.109-.294.227-.397.262-.172.566-.269.879-.284.313-.014.624.057.901.204.609.203 1.118.633 1.42 1.2.061.132.083.279.063.424-.02.144-.081.28-.175.39-.095.111-.22.192-.36.234-.139.042-.288.042-.428.002ZM367.18 116.63c.455-.065.905-.155 1.35-.27.491-.028.959-.218 1.33-.54.094-.124.145-.275.145-.43 0-.155-.051-.306-.145-.43-.224-.219-.502-.375-.807-.45-.304-.076-.622-.069-.923.02-.637.079-1.219.397-1.63.89-.092.117-.148.258-.16.406-.012.149.021.297.094.427s.183.235.316.302.282.093.43.075ZM376.23 129.57c-.27.23-.53.55-.91.56-.385-.03-.759-.139-1.1-.32 0 0-.07 0-.05.05.138.21.329.381.553.493.225.112.476.163.727.147.215-.043.412-.149.567-.303.154-.155.26-.352.303-.567.02-.06-.06-.09-.09-.06ZM375.31 126.4c-.285.395-.649.728-1.069.975-.42.248-.887.406-1.371.465-.424.065-.856.065-1.28 0-.08.01-.16.01-.24 0-.073.008-.147.008-.22 0-.056-.011-.106-.041-.142-.085-.036-.044-.057-.098-.058-.155-.006-.033-.006-.067 0-.1v-.09c0-.8.18-2 .18-2-.3.13-1.83.71-1.78.29.303-3.596.973-7.151 2-10.61 0-.11.2-.07.19 0-.26 3.32-1.11 6.58-1.42 9.92.542-.224 1.116-.362 1.7-.41.11 0-.33 2.33-.31 2.69.65.103 1.314.075 1.953-.083s1.24-.443 1.767-.837c.09-.12.17-.04.1.03Z"/><path fill="#263238" d="M372.09 127.45c.405.593.956 1.072 1.6 1.39.355.167.755.216 1.14.14.84-.17.91-.93.79-1.59-.063-.345-.167-.68-.31-1-.934.685-2.062 1.056-3.22 1.06Z"/><path fill="#FF98B9" d="M373.69 128.84c.355.167.755.216 1.14.14.84-.17.91-.93.79-1.59-.438-.012-.868.125-1.218.388-.351.263-.601.638-.712 1.062Z"/><path fill="#263238" d="M367.2 110.53c5.08 3.49 12-1.77 12-1.77.435 1.109 1.215 2.048 2.226 2.679 1.01.63 2.197.918 3.384.821 0 0 1 8.61 3.26 8.59 3.46 0 4.54-11.75 3.45-14.06-1.09-2.31-4-2.9-4-2.9-.323-1.396-1.163-2.618-2.35-3.42-2.36-1.8101-10.51.62-10.51.62-.465-1.089-1.177-2.0547-2.08-2.8201-.218-.1899-.472-.3336-.747-.4227-.275-.089-.565-.1214-.853-.0952-.288.0261-.567.1103-.822.2475-.254.1371-.478.3244-.658.5504.434.6347.718 1.3596.83 2.1201.4 2.52-1.65 2.52-1.63.23-.024-.854.26-1.6881.8-2.3501-1-1.5-2.67-2-3.68-1.19-1.82 1.45-2.82 10.2701 1.38 13.1701Z"/><path fill="#F7A9A0" d="M386.53 122s3.14-5.1 5.43-4c2.29 1.1.14 8.34-2.41 9.47-.318.166-.666.267-1.023.295-.358.029-.717-.015-1.057-.129-.34-.114-.654-.296-.922-.534-.268-.238-.485-.528-.638-.852l.62-4.25Z"/><path fill="#263238" d="M391.29 120.07s.06.05 0 .07c-1.78.85-2.65 2.6-3.22 4.4.096-.189.232-.356.398-.488s.359-.226.565-.277c.206-.05.421-.055.629-.015.209.041.406.126.578.25.008.005.015.013.02.022.004.008.007.018.007.028 0 .01-.003.02-.007.028-.005.009-.012.016-.02.022-.329-.081-.675-.059-.992.062-.316.122-.588.337-.778.618-.306.473-.564.976-.77 1.5-.08.17-.38.1-.33-.09-.19-2.37 1.43-5.75 3.92-6.13Z"/><path fill="#25B679" d="M86.66 358.53c.3757-9.667.2422-19.347-.4-29-1.4293-19.934-4.4726-39.718-9.1-59.16-2.53-10.94-5.66-21.7-8.91-32.45-.1-.33-.62-.24-.53.1 10.07 37.9 18.32 77 17.75 116.4-.15 11-1.43 21.85-2.48 32.81 0 .29.46.41.52.11 2.08-9.41 2.76-19.23 3.15-28.81Z"/><path fill="#25B679" d="M67.72 238s-15.24 38.7-11.83 47.8c3.41 9.1 10.45 11 10.45 11s-9.34 13.34-2.81 25.83c6.53 12.49 21 11.9 22 26.06-.04 0 .77-59.21-17.81-110.69Z"/><path fill="#263238" d="M71.59 272.46c-2.7611-1.715-5.9134-2.7-9.16-2.86-.0159 0-.0312.006-.0424.018-.0113.011-.0176.026-.0176.042 0 .016.0063.031.0176.042.0112.012.0265.018.0424.018 3.1381.6 6.184 1.609 9.06 3 .12.01.21-.18.1-.26ZM73.4399 313.43c-2.1213-1.218-4.4571-2.015-6.88-2.35-.08 0-.09.11 0 .13 2.3664.473 4.6551 1.274 6.8 2.38.09.05.17-.11.08-.16Z"/><path fill="#25B679" d="M126.74 286.42c-6.447 4.457-12.368 9.63-17.65 15.42-5.446 6.133-9.6509 13.265-12.38 21-5.7879 16.105-8.9023 33.049-9.22 50.16-.1909 9.484.7219 18.957 2.72 28.23.0162.067.0576.126.1158.164.0582.037.1287.051.1968.038.0681-.012.1287-.051.1691-.107.0405-.057.0578-.126.0483-.195-2.4956-16.352-2.4079-32.995.26-49.32 2.62-16 6.73-33.42 16.91-46.43 5.54-7.09 12.45-12.66 19.28-18.42.37-.3-.08-.8-.45-.54Z"/><path fill="#25B679" d="M89.74 361.5c3.6661-5.938 7.9791-11.452 12.86-16.44 7.63-7.63 14.05-13.05 15-18.09.95-5.04-7.64-8.76-7.64-8.76s10.56 1.9 13.45-2.53c2.89-4.43 4.28-30.09 4.28-30.09s-19.2 13.71-28.15 32.93-9.8 42.98-9.8 42.98Z"/><path fill="#263238" d="M120.87 309.66c-1.264-.188-2.546-.232-3.82-.13-.15 0-.14.26 0 .27 1.27 0 2.53-.06 3.8 0 .014-.005.026-.013.035-.025.009-.011.015-.025.017-.039.002-.014 0-.029-.005-.042-.006-.014-.015-.025-.027-.034ZM107.05 334.55c-2.027.041-4.032.441-5.92 1.18v.09c2-.47 3.93-.66 5.9-1 .2-.01.19-.27.02-.27ZM102.91 326c-.846-.008-1.69.069-2.52.23-.019 0-.036.007-.05.02-.013.014-.02.031-.02.05 0 .019.007.036.02.049.014.014.031.021.05.021.842.049 1.686.012 2.52-.11.034 0 .067-.014.092-.038.024-.024.038-.058.038-.092 0-.034-.014-.068-.038-.092-.025-.024-.058-.038-.092-.038Z"/><path fill="#25B679" d="M33.45 313.64c6.2492 2.119 12.2376 4.94 17.85 8.41 5.8203 3.701 10.8669 8.496 14.86 14.12 8.4121 11.705 14.8537 24.706 19.07 38.49 2.3448 7.633 3.7945 15.512 4.32 23.48-.0109.052-.0392.098-.0802.131-.0409.033-.0921.051-.1448.051-.0527 0-.1038-.018-.1448-.051-.0409-.033-.0692-.079-.0802-.131-1.7639-13.817-5.6885-27.271-11.63-39.87-5.82-12.27-13.17-25.45-24.42-33.63-6.12-4.45-13-7.37-19.85-10.45-.37-.19-.11-.67.25-.55Z"/><path fill="#25B679" d="M80.75 365.85c-4.3446-3.953-9.1097-7.417-14.21-10.33-7.94-4.41-14.39-7.31-16.36-11.16-1.97-3.85 4.16-8.85 4.16-8.85s-8.1 4-11.46 1.05c-3.36-2.95-10.42-23.35-10.42-23.35s18.7 6.65 30.39 20.14c11.69 13.49 17.9 32.5 17.9 32.5Z"/><path fill="#263238" d="M48.8999 325.67c-.8391-.069-1.6837-.021-2.51.14-.0153.006-.0285.016-.0378.029-.0093.014-.0143.03-.0143.046s.005.032.0143.046c.0093.013.0225.023.0378.029.82-.09 1.64-.06 2.46-.08.0255.001.0505-.007.0708-.022.0204-.016.0347-.038.0406-.062.0059-.025.003-.051-.0082-.074-.0112-.023-.03-.041-.0532-.052Z"/><path fill="#455A64" d="M104.88 423.93H62.6499l6.02-44.11 1.54-11.31h27.11l1.53 11.31 6.0301 44.11Z"/><path fill="#263238" d="M98.8499 379.82h-30.18l1.54-11.31h27.11l1.53 11.31Z"/><path fill="#455A64" d="M101.19 364.59H66.33v9.58h34.86v-9.58Z"/></svg>