<svg xmlns="http://www.w3.org/2000/svg" width="261" height="78" fill="none"><path fill="#25B679" fill-rule="evenodd" d="M.328724 7.1504C0 8.37722 0 9.87251 0 12.8631v51.4523c0 2.9906 0 4.4859.328724 5.7127.892056 3.3292 3.492466 5.9296 6.821676 6.8217 1.22682.3287 2.72211.3287 5.7127.3287h25.7261c17.2846 0 31.915-11.3639 36.8275-27.028-6.1129-.3142-10.9727-5.3702-10.9727-11.5613 0-6.191 4.8598-11.247 10.9727-11.5612C70.5042 11.3639 55.8738 0 38.5892 0H12.8631C9.8725 0 8.37722 0 7.1504.328724 3.82119 1.22078 1.22078 3.82119.328724 7.1504ZM34.1515 53.0602c7.9921 0 14.4709-6.4789 14.4709-14.471 0-7.992-6.4788-14.4709-14.4709-14.4709-7.9921 0-14.471 6.4789-14.471 14.4709 0 7.9921 6.4789 14.471 14.471 14.471Zm-9.6619-31.0277c1.4702-.8633 1.9622-2.7551 1.0989-4.2253-.8634-1.4703-2.7551-1.9622-4.2254-1.0989-1.4702.8634-1.9622 2.7551-1.0988 4.2253.8633 1.4703 2.7551 1.9622 4.2253 1.0989Zm-.0433 37.8397c1.4702-.8633 1.9622-2.7551 1.0988-4.2253-.8633-1.4703-2.7551-1.9622-4.2253-1.0989-1.4702.8634-1.9622 2.7551-1.0989 4.2253.8634 1.4703 2.7551 1.9622 4.2254 1.0989Zm34.1255-23.6191c.8633 1.4702.3713 3.362-1.0989 4.2253-1.4703.8634-3.362.3714-4.2253-1.0988-.8634-1.4703-.3714-3.362 1.0988-4.2254 1.4703-.8633 3.362-.3713 4.2254 1.0989Zm17.5455 11.9835c5.328 0 9.6473-4.3193 9.6473-9.6474 0-5.328-4.3193-9.6473-9.6473-9.6473-5.3281 0-9.6473 4.3193-9.6473 9.6473 0 5.3281 4.3192 9.6474 9.6473 9.6474ZM136.352 48.116V5.47607h-7.893V48.116h7.893Zm-32.128-28.8842c-2.097.7626-4.014 1.9256-5.7485 3.489l1.4013 2.5166c.2482.3813.5532.715.9152 1.001.381.2669.848.4003 1.401.4003.629 0 1.182-.1239 1.659-.3717.477-.267.982-.5434 1.516-.8294.553-.305 1.191-.5815 1.916-.8293.724-.2669 1.63-.4004 2.717-.4004 1.468 0 2.593.4385 3.374 1.3155.782.858 1.173 2.2116 1.173 4.061v1.5157c-3.375.0762-6.187.4099-8.437 1.0009-2.23.572-4.023 1.306-5.376 2.2021-1.3348.877-2.2785 1.8588-2.8314 2.9456-.5529 1.0867-.8294 2.1734-.8294 3.2602 0 1.3155.2097 2.4785.6292 3.489.4194 1.0104 1.0104 1.8588 1.7731 2.5452.7815.6673 1.7065 1.1725 2.7735 1.5157 1.068.3432 2.25.5148 3.547.5148 1.048 0 1.992-.0858 2.831-.2574.858-.1716 1.659-.4195 2.402-.7436.744-.3432 1.459-.7626 2.145-1.2583.705-.4957 1.43-1.0677 2.173-1.7159l.63 1.8875c.247.6673.562 1.1058.943 1.3155.401.2097.973.3146 1.716.3146h3.604V29.5844c0-1.6778-.258-3.2221-.772-4.633-.515-1.4108-1.259-2.6215-2.231-3.6319-.953-1.0296-2.126-1.8303-3.518-2.4023-1.372-.5719-2.936-.8579-4.69-.8579-2.44 0-4.709.3908-6.806 1.1725Zm5.388 23.5425c-2.969 1.0804-5.922.4523-6.597-1.403-.676-1.8552 1.183-4.235 4.152-5.3154 2.968-1.0804 5.922-.4523 6.597 1.403.675 1.8552-1.184 4.235-4.152 5.3154Zm38.403-23.5425c-2.097.7626-4.013 1.9256-5.748 3.489l1.401 2.5166c.248.3813.553.715.915 1.001.381.2669.848.4003 1.401.4003.629 0 1.182-.1239 1.659-.3717.477-.267.982-.5434 1.516-.8294.553-.305 1.191-.5815 1.916-.8293.724-.2669 1.63-.4004 2.717-.4004 1.468 0 2.593.4385 3.374 1.3155.782.858 1.173 2.2116 1.173 4.061v1.5157c-3.375.0762-6.187.4099-8.437 1.0009-2.23.572-4.023 1.306-5.376 2.2021-1.335.877-2.279 1.8588-2.831 2.9456-.553 1.0867-.83 2.1734-.83 3.2602 0 1.3155.21 2.4785.629 3.489.42 1.0104 1.011 1.8588 1.773 2.5452.782.6673 1.707 1.1725 2.775 1.5157 1.067.3432 2.249.5148 3.546.5148 1.048 0 1.992-.0858 2.831-.2574.858-.1716 1.659-.4195 2.402-.7436.744-.3432 1.459-.7626 2.145-1.2583.705-.4957 1.43-1.0677 2.174-1.7159l.629 1.8875c.248.6673.562 1.1058.943 1.3155.401.2097.973.3146 1.716.3146h3.604V29.5844c0-1.6778-.258-3.2221-.772-4.633-.515-1.4108-1.259-2.6215-2.231-3.6319-.953-1.0296-2.126-1.8303-3.518-2.4023-1.372-.5719-2.936-.8579-4.69-.8579-2.44 0-4.709.3908-6.806 1.1725Zm-1.174 22.1428c.676 1.8552 3.629 2.4833 6.598 1.4029 2.968-1.0804 4.827-3.4602 4.152-5.3154-.676-1.8552-3.629-2.4834-6.598-1.403-2.968 1.0804-4.827 3.4602-4.152 5.3155Zm51.462-35.89853V48.116h-4.862c-1.01 0-1.658-.4576-1.944-1.3727l-.658-2.5739c-.591.6483-1.22 1.2393-1.888 1.7731-.648.5339-1.353 1.001-2.116 1.4013-.763.3813-1.582.6769-2.459.8866-.877.2097-1.831.3146-2.86.3146-1.583 0-3.032-.3337-4.347-1.001-1.316-.6673-2.46-1.6396-3.432-2.917-.953-1.2964-1.697-2.8789-2.231-4.7473-.533-1.8684-.8-4.0037-.8-6.406 0-2.1925.295-4.2325.886-6.12.61-1.8875 1.468-3.5176 2.574-4.8903 1.106-1.3727 2.44-2.4499 4.004-3.2316 1.563-.7817 3.298-1.1725 5.205-1.1725 1.601 0 2.945.2383 4.032.7149 1.106.4767 2.107 1.1249 3.003 1.9447V5.47607h7.893Zm11.656 13.75573c-2.097.7626-4.013 1.9256-5.748 3.489l1.401 2.5166c.248.3813.553.715.915 1.001.382.2669.849.4003 1.402.4003.629 0 1.182-.1239 1.658-.3717.477-.267.982-.5434 1.516-.8294.553-.305 1.192-.5815 1.916-.8293.724-.2669 1.63-.4004 2.717-.4004 1.468 0 2.593.4385 3.374 1.3155.782.858 1.173 2.2116 1.173 4.061v1.5157c-3.375.0762-6.187.4099-8.437 1.0009-2.23.572-4.022 1.306-5.376 2.2021-1.335.877-2.278 1.8588-2.831 2.9456-.553 1.0867-.83 2.1734-.83 3.2602 0 1.3155.21 2.4785.63 3.489.419 1.0104 1.01 1.8588 1.773 2.5452.781.6673 1.706 1.1725 2.774 1.5157 1.067.3432 2.249.5148 3.546.5148 1.049 0 1.992-.0858 2.831-.2574.858-.1716 1.659-.4195 2.402-.7436.744-.3432 1.459-.7626 2.145-1.2583.706-.4957 1.43-1.0677 2.174-1.7159l.629 1.8875c.248.6673.562 1.1058.944 1.3155.4.2097.972.3146 1.715.3146h3.604V29.5844c0-1.6778-.258-3.2221-.772-4.633-.515-1.4108-1.259-2.6215-2.231-3.6319-.953-1.0296-2.126-1.8303-3.518-2.4023-1.372-.5719-2.936-.8579-4.69-.8579-2.44 0-4.709.3908-6.806 1.1725Zm-1.203 22.1428c.676 1.8552 3.629 2.4833 6.598 1.4029 2.968-1.0804 4.827-3.4602 4.152-5.3154-.675-1.8552-3.629-2.4834-6.598-1.403-2.968 1.0804-4.827 3.4602-4.152 5.3155Zm32.702-19.3116c.591-.5719 1.201-1.0962 1.83-1.5729.649-.4766 1.325-.8865 2.031-1.2297.724-.3432 1.497-.6101 2.316-.8007.839-.1907 1.745-.286 2.717-.286 1.602 0 3.022.2764 4.261.8293 1.24.5529 2.279 1.3251 3.118 2.3165.857.9914 1.496 2.1734 1.916 3.5462.438 1.3727.657 2.8788.657 4.5185V48.116h-7.864V29.3842c0-1.6397-.381-2.9075-1.144-3.8036-.763-.9151-1.888-1.3727-3.375-1.3727-1.105 0-2.145.2383-3.117.7149-.972.4767-1.897 1.144-2.774 2.0019V48.116h-7.893V18.6312h4.862c.991 0 1.649.4576 1.973 1.3728l.486 2.059Zm-58.111 18.9486c3.475 0 6.292-3.5211 6.292-7.8646 0-4.3434-2.817-7.8645-6.292-7.8645-3.474 0-6.291 3.5211-6.291 7.8645 0 4.3435 2.817 7.8646 6.291 7.8646ZM196.546 61.5651c.152-.1364.309-.2596.472-.3697.167-.1153.343-.2123.527-.291.188-.0838.388-.1468.597-.1887.215-.0472.446-.0708.692-.0708.441 0 .831.076 1.172.2281.341.152.627.3644.857.637.236.2726.412.5977.527.9752.121.3775.181.7917.181 1.2426v5.1513h-2.163v-5.1513c0-.4509-.104-.7996-.314-1.046-.21-.2516-.519-.3775-.928-.3775-.304 0-.59.0656-.857.1966-.268.1311-.522.3146-.763.5506v5.8276h-2.171v-11.726h2.171v4.412Zm-89.665 3.9086c.283-.7025.425-1.4706.425-2.3043 0-.8284-.142-1.5912-.425-2.2885-.278-.6974-.673-1.2977-1.187-1.801-.509-.5086-1.122-.9044-1.841-1.1876-.718-.2831-1.515-.4246-2.39-.4246h-4.3888v11.4114h4.3888c.875 0 1.672-.1416 2.39-.4247.719-.2832 1.332-.6764 1.841-1.1797.514-.5033.909-1.1037 1.187-1.801Zm-2.233-3.9165c.157.4771.236 1.0145.236 1.6122 0 .603-.079 1.143-.236 1.6201-.158.4771-.383.8835-.677 1.219-.293.3303-.652.5846-1.077.7629-.419.173-.897.2595-1.431.2595h-2.0137v-7.7151h2.0137c.534 0 1.012.0891 1.431.2674.425.1783.784.4326 1.077.7629.294.3303.519.734.677 1.2111Zm5.309-.6213c-.577.2097-1.104.5295-1.581.9595l.385.692c.068.1049.152.1967.252.2753.105.0734.233.1101.385.1101.173 0 .325-.0341.456-.1022.131-.0734.27-.1495.417-.2281.152-.0839.328-.1599.527-.2281.199-.0734.448-.1101.747-.1101.404 0 .713.1206.928.3618.215.2359.323.6082.323 1.1168v.4168c-.928.0209-1.702.1127-2.32.2752-.614.1573-1.107.3592-1.479.6056-.367.2412-.626.5112-.778.81-.152.2989-.228.5977-.228.8966 0 .3618.057.6816.173.9595.115.2778.277.5112.487.6999.215.1835.469.3224.763.4168.294.0944.619.1416.975.1416.289 0 .548-.0236.779-.0708.236-.0472.456-.1153.66-.2045.205-.0943.401-.2097.59-.346.194-.1363.393-.2936.598-.4719l.173.5191c.068.1835.155.3041.259.3617.111.0577.268.0866.472.0866h.991v-5.0962c0-.4614-.07-.8861-.212-1.2741s-.346-.7209-.613-.9988c-.263-.2831-.585-.5033-.968-.6606-.377-.1573-.807-.2359-1.29-.2359-.671 0-1.295.1074-1.871.3224Zm.635 4.6039c-.792.2885-1.279.9506-1.087 1.4789.193.5283.991.7228 1.783.4343.793-.2884 1.279-.9505 1.087-1.4788-.192-.5283-.99-.7228-1.783-.4344Zm11.055-3.1018c-.058.0892-.118.1547-.181.1966-.058.0367-.139.0551-.244.0551-.105 0-.212-.0262-.322-.0787-.11-.0524-.234-.1074-.37-.1651-.136-.0629-.294-.1206-.472-.173-.173-.0525-.375-.0787-.605-.0787-.352 0-.624.0734-.818.2202-.194.1416-.291.3303-.291.5663 0 .1625.055.2988.165.4089.11.1101.254.2071.432.291.184.0787.391.1547.622.2281.23.0681.466.1442.707.2281.247.0838.485.1808.716.2909.231.1101.435.2491.614.4169.183.1625.33.3617.44.5977.11.2307.165.5112.165.8415 0 .3932-.073.7576-.22 1.0931-.142.3303-.351.6161-.629.8573-.278.2411-.624.4299-1.038.5662-.415.1363-.892.2045-1.432.2045-.278 0-.553-.0262-.825-.0787-.273-.0471-.533-.1153-.779-.2044-.246-.0944-.477-.2019-.692-.3225-.215-.1206-.401-.2516-.559-.3932l.504-.8101c.057-.0943.128-.1677.212-.2202.089-.0524.202-.0786.338-.0786.131 0 .252.0341.362.1022.11.063.233.1337.37.2124.136.0734.296.1442.479.2123.189.0629.423.0944.7.0944.21 0 .391-.0236.543-.0708.152-.0472.275-.1101.37-.1887.094-.0839.162-.1757.204-.2753.047-.1049.071-.2123.071-.3224 0-.1783-.058-.3225-.173-.4326-.11-.1153-.257-.2149-.44-.2988-.179-.0839-.386-.1599-.622-.2281-.236-.0682-.477-.1442-.723-.2281-.241-.0839-.48-.1835-.716-.2988-.231-.1154-.438-.2596-.621-.4326-.179-.1782-.325-.3958-.441-.6527-.11-.2569-.165-.5689-.165-.9359 0-.3356.066-.6528.197-.9516.131-.3041.327-.5715.59-.8022.262-.2307.587-.4142.975-.5505.393-.1363.847-.2045 1.36-.2045.577 0 1.101.0944 1.573.2831.472.1888.86.4352 1.164.7393l-.495.7707Zm3.741 6.4096c.284.1049.609.1573.976.1573.403 0 .794-.0603 1.171-.1809.378-.1206.716-.2988 1.015-.5348l-.653-1.0381c-.042-.0682-.084-.1153-.126-.1416-.042-.0314-.094-.0471-.157-.0471-.047 0-.094.0131-.141.0393-.042.0209-.09.0472-.142.0786-.052.0262-.115.0524-.189.0787-.073.0209-.162.0314-.267.0314-.199 0-.354-.0655-.464-.1966-.105-.1311-.157-.3093-.157-.5348v-4.2311h2.091v-1.51h-2.091v-2.4694h-1.133c-.262 0-.422.1179-.48.3539l-.44 2.0998-1.298.2359v.8494c0 .1468.04.2569.118.3303.084.0734.184.1101.299.1101h.763v4.3727c0 .3565.05.6763.149.9595.1.2831.247.5243.441.7235.194.1992.432.3539.715.464Zm11.238-8.0769v8.1084h-1.337c-.278 0-.456-.1259-.535-.3775l-.142-.5663c-.162.1573-.33.3015-.503.4326-.173.131-.359.2438-.558.3381-.194.0944-.407.1678-.637.2202-.226.0525-.472.0787-.74.0787-.44 0-.833-.076-1.179-.2281-.341-.152-.627-.3644-.858-.637-.23-.2726-.406-.5977-.526-.9752-.121-.3775-.181-.7917-.181-1.2426v-5.1513h2.17v5.1513c0 .4509.103.8022.307 1.0538.21.2465.519.3697.928.3697.304 0 .59-.0656.857-.1966.268-.1364.522-.3199.763-.5506v-5.8276h2.171Zm4.717.2438c-.336.2674-.632.6318-.889 1.0932l-.118-.81c-.036-.194-.097-.3303-.181-.409-.083-.0786-.236-.118-.456-.118h-1.282v8.1084h2.171v-4.9625c.084-.194.173-.3671.267-.5191.1-.1521.21-.2805.331-.3854.12-.1048.257-.1861.409-.2438.157-.0576.335-.0865.534-.0865.137 0 .284.0131.441.0393.157.021.278.0315.362.0315.094 0 .167-.0183.22-.055.057-.042.099-.1154.126-.2203l.141-1.6043c-.231-.173-.529-.2595-.896-.2595-.451 0-.845.1337-1.18.401Zm10.483 7.8646h-2.085c-.157 0-.285-.0394-.385-.118-.094-.0787-.17-.1704-.228-.2753l-1.596-2.666c-.048.1782-.116.3355-.205.4718l-1.368 2.1942c-.063.0996-.142.1914-.236.2753-.089.0786-.205.118-.346.118h-1.935l2.753-4.184-2.643-3.9244h2.084c.158 0 .273.021.346.063.074.0419.139.1101.197.2044l1.588 2.5717c.027-.0891.061-.1782.103-.2674.042-.0943.091-.1861.149-.2752l1.219-1.9897c.126-.2045.289-.3068.488-.3068h1.989l-2.642 3.8301 2.753 4.2783Zm5.84-7.9432c-.498-.194-1.052-.291-1.66-.291-.613 0-1.172.097-1.675.291-.498.194-.925.4719-1.282.8336-.356.3566-.634.7917-.834 1.3055-.193.5139-.29 1.0932-.29 1.7381s.097 1.2269.29 1.7459c.2.5138.478.9516.834 1.3134.357.3618.784.6396 1.282.8336.503.194 1.062.291 1.675.291.608 0 1.162-.097 1.66-.291.498-.194.925-.4718 1.282-.8336.356-.3618.631-.7996.825-1.3134.194-.519.291-1.101.291-1.7459s-.097-1.2242-.291-1.7381c-.194-.5138-.469-.9489-.825-1.3055-.357-.3617-.784-.6396-1.282-.8336Zm-.284 5.7961c-.298.4247-.757.6371-1.376.6371-.634 0-1.101-.2124-1.4-.6371-.299-.4299-.448-1.0669-.448-1.911 0-.8389.149-1.4707.448-1.8954.299-.4299.766-.6449 1.4-.6449.619 0 1.078.215 1.376.6449.299.4247.449 1.0565.449 1.8954 0 .8441-.15 1.4811-.449 1.911Zm6.058-5.0175c.163-.1573.331-.3015.504-.4326.178-.131.364-.2438.558-.3381.199-.0944.412-.1678.637-.2202.231-.0525.48-.0787.747-.0787.441 0 .831.076 1.172.2281.341.152.627.3644.857.637.236.2726.412.5977.527.9752.121.3775.181.7917.181 1.2426v5.1513h-2.163v-5.1513c0-.4509-.104-.7996-.314-1.046-.21-.2516-.519-.3775-.928-.3775-.304 0-.59.0656-.857.1966-.268.1311-.522.3146-.763.5506v5.8276h-2.171v-8.1084h1.337c.273 0 .454.1259.543.3775l.133.5663Zm14.139.118v-.7944h-2.375c-.53-.2726-1.14-.4089-1.832-.4089-.467 0-.9.0603-1.298.1809-.399.1206-.745.2962-1.038.5269-.294.2254-.525.5007-.692.8258-.163.325-.244.6894-.244 1.0931 0 .4929.12.9254.362 1.2977.241.367.569.6606.983.8808-.367.1783-.64.4011-.818.6685-.173.2674-.26.5217-.26.7628 0 .2989.061.5427.181.7314.126.1835.291.333.496.4483-.388.1521-.692.3539-.913.6056-.22.2516-.33.5584-.33.9201 0 .2779.073.5453.22.8022.147.2569.37.4824.669.6764.304.1992.684.3565 1.14.4718.461.1206 1.004.1809 1.628.1809.629 0 1.19-.0813 1.683-.2438.493-.1625.907-.3775 1.243-.6449.34-.2674.6-.5715.778-.9123.178-.3408.268-.692.268-1.0538 0-.388-.076-.7052-.228-.9516-.147-.2464-.344-.443-.59-.5898-.241-.1521-.519-.2596-.834-.3225-.309-.0682-.626-.1153-.952-.1416-.319-.0262-.637-.0419-.951-.0471-.309-.0105-.587-.0289-.834-.0551-.241-.0315-.438-.0813-.59-.1494-.146-.0682-.22-.1783-.22-.3303 0-.1626.11-.312.33-.4483.252.0472.522.0708.811.0708.456 0 .88-.0603 1.274-.1809.393-.1258.734-.3015 1.022-.5269.288-.2307.514-.506.676-.8258.168-.3251.252-.6895.252-1.0932 0-.2936-.045-.5688-.134-.8257l.661-.1337c.162-.0367.278-.0918.346-.1652.073-.0734.11-.173.11-.2988Zm-3.224 2.3514c-.21.2255-.538.3382-.983.3382-.441 0-.769-.1127-.984-.3382-.209-.2306-.314-.5216-.314-.8729 0-.3723.105-.6633.314-.873.21-.2149.538-.3224.984-.3224.445 0 .773.1075.983.3224.215.2097.322.5007.322.873 0 .3565-.107.6475-.322.8729Zm.935 4.6794c.09.0892.134.2045.134.3461 0 .1415-.034.2726-.102.3932-.063.1206-.17.2228-.323.3067-.152.0891-.351.1573-.597.2045-.247.0472-.548.0708-.905.0708-.346 0-.634-.0236-.865-.0708-.23-.042-.417-.1023-.558-.1809-.142-.0786-.244-.173-.307-.2831-.058-.1101-.086-.2307-.086-.3618 0-.1887.057-.3565.173-.5033.12-.1521.272-.2831.456-.3932.236.0262.477.0445.723.055.247.0105.485.0236.716.0393.231.0105.448.0289.653.0551.204.021.38.0577.527.1101.152.0524.272.1232.361.2123Zm3.237-6.9679c.477-.43 1.004-.7498 1.58-.9595.577-.215 1.201-.3224 1.872-.3224.483 0 .913.0786 1.29.2359.383.1573.705.3775.967.6606.268.2779.472.6108.614.9988.141.388.212.8127.212 1.2741v5.0962h-.991c-.204 0-.362-.0289-.472-.0866-.105-.0576-.191-.1782-.259-.3617l-.173-.5191c-.205.1783-.404.3356-.598.4719-.189.1363-.385.2517-.59.346-.204.0892-.424.1573-.66.2045-.231.0472-.491.0708-.779.0708-.357 0-.682-.0472-.975-.1416-.294-.0944-.548-.2333-.763-.4168-.21-.1887-.372-.4221-.488-.6999-.115-.2779-.173-.5977-.173-.9595 0-.2989.076-.5977.228-.8966.152-.2988.412-.5688.779-.81.372-.2464.865-.4483 1.479-.6056.618-.1625 1.392-.2543 2.32-.2752v-.4168c0-.5086-.108-.8809-.323-1.1168-.215-.2412-.524-.3618-.928-.3618-.299 0-.548.0367-.747.1101-.199.0682-.375.1442-.527.2281-.147.0786-.286.1547-.417.2281-.131.0681-.283.1022-.456.1022-.152 0-.28-.0367-.385-.1101-.1-.0786-.184-.1704-.252-.2753l-.385-.692Zm1.044 5.1233c-.192-.5283.294-1.1904 1.087-1.4789.792-.2884 1.591-.0939 1.783.4344.192.5283-.294 1.1904-1.087 1.4788-.792.2885-1.591.094-1.783-.4343Zm12.879-4.2425c.063-.0472.126-.1127.189-.1966l.566-.7707c-.372-.3775-.791-.6659-1.258-.8651-.467-.1993-1.009-.2989-1.628-.2989-.65 0-1.224.1075-1.722.3225-.493.2097-.907.5007-1.243.8729-.335.3723-.59.8127-.763 1.3213-.173.5085-.259 1.059-.259 1.6515 0 .6659.097 1.2583.291 1.7774.199.519.466.9568.802 1.3134.335.3565.726.6291 1.172.8179.445.1835.917.2752 1.415.2752.283 0 .569-.021.858-.0629.288-.0367.571-.1049.849-.2045.283-.1048.556-.2438.818-.4168.262-.1783.508-.4011.739-.6685l-.621-.7864c-.095-.1259-.226-.1888-.393-.1888-.09 0-.171.0184-.244.0551-.068.0314-.139.0734-.213.1258-.068.0524-.141.1101-.22.173-.078.0629-.173.1206-.283.173-.105.0525-.231.097-.377.1337-.142.0315-.312.0472-.512.0472-.576 0-1.032-.2202-1.368-.6606-.33-.4404-.495-1.0748-.495-1.9032 0-.3932.036-.7471.11-1.0617.078-.3146.196-.582.354-.8022.157-.2202.353-.388.589-.5033.242-.1206.525-.1809.85-.1809.257 0 .472.0315.645.0944.173.0577.322.1232.448.1966.126.0682.236.1337.33.1966.1.0577.202.0865.307.0865.115 0 .204-.021.267-.0629Zm12.249-1.8403c-.576.2097-1.103.5295-1.58.9595l.385.692c.068.1049.152.1967.252.2753.105.0734.233.1101.385.1101.173 0 .325-.0341.456-.1022.131-.0734.27-.1495.417-.2281.152-.0839.328-.1599.527-.2281.199-.0734.448-.1101.747-.1101.404 0 .713.1206.928.3618.215.2359.323.6082.323 1.1168v.4168c-.928.0209-1.702.1127-2.321.2752-.613.1573-1.106.3592-1.478.6056-.367.2412-.627.5112-.779.81-.152.2989-.228.5977-.228.8966 0 .3618.058.6816.173.9595.116.2778.278.5112.488.6999.215.1835.469.3224.763.4168.293.0944.618.1416.975.1416.288 0 .548-.0236.779-.0708.235-.0472.456-.1153.66-.2045.205-.0943.401-.2097.59-.346.194-.1363.393-.2936.598-.4719l.173.5191c.068.1835.154.3041.259.3617.11.0577.268.0866.472.0866h.991v-5.0962c0-.4614-.071-.8861-.212-1.2741-.142-.388-.346-.7209-.614-.9988-.262-.2831-.584-.5033-.967-.6606-.378-.1573-.807-.2359-1.29-.2359-.671 0-1.295.1074-1.872.3224Zm.553 4.6754c-.792.2885-1.279.9506-1.086 1.4789.192.5283.99.7228 1.783.4343.792-.2884 1.279-.9505 1.086-1.4788-.192-.5283-.99-.7228-1.783-.4344Z" clip-rule="evenodd"/></svg>